<svg width="901" height="514" viewBox="0 0 901 514" fill="none" xmlns="http://www.w3.org/2000/svg">
<path d="M189.72 202.256L102.092 439.606L101.133 439.246L188.761 201.896L189.72 202.256Z" fill="#32BBFF"/>
<path d="M431.325 92.5713L303.24 439.606L302.281 439.247L430.366 92.2117L431.325 92.5713Z" fill="#32BBFF"/>
<path d="M591.956 202.256L504.329 439.606L503.37 439.246L590.997 201.896L591.956 202.256Z" fill="#32BBFF"/>
<path d="M833.562 92.5713L705.477 439.606L704.518 439.247L832.603 92.2117L833.562 92.5713Z" fill="#32BBFF"/>
<path d="M188.88 201.596H591.777V202.615H188.88V201.596Z" fill="#32BBFF"/>
<path d="M647.518 51.8137L632.534 92.5708L631.575 92.2112L646.559 51.4541L647.518 51.8137Z" fill="#32BBFF"/>
<path d="M430.846 91.9116H833.263V92.8706H430.846V91.9116Z" fill="#32BBFF"/>
<path d="M818.633 329.747H471.223L444.228 402.881H791.638L818.633 329.747Z" fill="#32BBFF"/>
<path d="M471.243 329.262H819.357C810.187 353.956 801.136 378.71 791.966 403.404H443.493C452.603 378.65 461.773 353.956 470.884 329.262H471.243ZM817.859 330.281H471.603L444.931 402.385H791.247L817.859 330.281Z" fill="#32BBFF"/>
<path d="M416.397 329.747H68.9869L41.9923 402.881H389.402L416.397 329.747Z" fill="#32BBFF"/>
<path d="M69.0067 329.262H417.12C407.95 353.956 398.84 378.65 389.729 403.404H41.2559C50.3663 378.65 59.4767 353.956 68.647 329.262H69.0067ZM415.622 330.281H69.3663L42.6943 402.385H389.01L415.622 330.281Z" fill="#32BBFF"/>
<path d="M456.875 220.045H310.597L283.602 293.179H429.88L456.875 220.045Z" fill="#FEFEFE"/>
<path d="M310.612 219.518H457.578C448.467 244.272 439.357 268.966 430.247 293.66H282.862C291.972 268.966 301.082 244.272 310.253 219.518H310.612ZM456.139 220.537H310.972L284.36 292.701H429.527L456.139 220.537Z" fill="#32BBFF"/>
<path d="M657.993 220.045H511.715L484.721 293.179H630.998L657.993 220.045Z" fill="#FEFEFE"/>
<path d="M511.701 219.518H658.726C649.616 244.272 640.505 268.966 631.335 293.66H484.01C493.12 268.966 502.231 244.272 511.341 219.518H511.701ZM657.228 220.537H512.06L485.448 292.701H630.616L657.228 220.537Z" fill="#32BBFF"/>
<path d="M859.109 220.045H712.831L685.837 293.179H832.114L859.109 220.045Z" fill="#FEFEFE"/>
<path d="M712.849 219.518H859.815C850.704 244.272 841.594 268.966 832.483 293.66H685.099C694.269 268.966 703.379 244.272 712.49 219.518H712.849ZM858.376 220.537H713.209L686.597 292.701H831.764L858.376 220.537Z" fill="#32BBFF"/>
<path d="M255.756 220.045H109.478L82.4839 293.179H228.762L255.756 220.045Z" fill="#FEFEFE"/>
<path d="M109.464 219.518H256.489C247.319 244.272 238.209 268.966 229.098 293.66H81.7732C90.8836 268.966 99.994 244.272 109.104 219.518H109.464ZM254.991 220.537H109.824L83.2117 292.701H228.379L254.991 220.537Z" fill="#32BBFF"/>
<path d="M375.891 439.447H229.613L202.618 512.581H348.896L375.891 439.447Z" fill="#FEFEFE"/>
<path d="M229.638 438.947H376.603C367.493 463.641 358.382 488.395 349.212 513.089H201.887C210.997 488.395 220.108 463.641 229.278 438.947H229.638ZM375.165 439.966H229.937L203.325 512.07H348.553L375.165 439.966Z" fill="#32BBFF"/>
<path d="M577.009 439.447H430.731L403.737 512.581H550.015L577.009 439.447Z" fill="#FEFEFE"/>
<path d="M430.726 438.947H577.751C568.581 463.641 559.531 488.395 550.36 513.089H403.035C412.146 488.395 421.256 463.641 430.366 438.947H430.726ZM576.253 439.966H431.086L404.474 512.07H549.641L576.253 439.966Z" fill="#32BBFF"/>
<path d="M778.128 439.447H631.85L604.856 512.581H751.133L778.128 439.447Z" fill="#FEFEFE"/>
<path d="M631.874 438.947H778.84C769.729 463.641 760.619 488.395 751.449 513.089H604.124C613.294 488.395 622.404 463.641 631.515 438.947H631.874ZM777.401 439.966H632.174L605.562 512.07H750.789L777.401 439.966Z" fill="#32BBFF"/>
<path d="M174.773 439.447H28.4948L1.50025 512.581H147.778L174.773 439.447Z" fill="#FEFEFE"/>
<path d="M28.4893 438.947H175.515C166.344 463.641 157.234 488.395 148.123 513.089H0.798401C9.90882 488.395 19.0192 463.641 28.1296 438.947H28.4893ZM174.016 439.966H28.8489L2.23689 512.07H147.404L174.016 439.966Z" fill="#32BBFF"/>
<path d="M497.367 110.344H351.089L324.094 183.478H470.372L497.367 110.344Z" fill="#0F213F"/>
<path d="M351.07 109.833H498.095C488.985 134.527 479.874 159.281 470.704 183.975H323.379C332.489 159.281 341.6 134.527 350.71 109.833H351.07ZM496.657 110.852H351.429L324.817 182.956H469.985L496.657 110.852Z" fill="#0F213F"/>
<path d="M899.602 110.344H753.325L726.33 183.478H872.608L899.602 110.344Z" fill="#0F213F"/>
<path d="M753.307 109.833H900.332C891.222 134.527 882.111 159.281 872.941 183.975H725.616C734.726 159.281 743.837 134.527 752.947 109.833H753.307ZM898.893 110.852H753.666L727.054 182.956H872.222L898.893 110.852Z" fill="#0F213F"/>
<path d="M738.977 0.642578H592.699L565.704 73.7765H711.982L738.977 0.642578Z" fill="#0F213F"/>
<path d="M592.676 0.148438H739.701C730.591 24.8425 721.48 49.5964 712.31 74.2904H564.985C574.095 49.5964 583.206 24.8425 592.376 0.148438H592.676ZM738.263 1.16737H593.035L566.423 73.2715H711.591L738.263 1.16737Z" fill="#0F213F"/>
<path d="M171.379 250.565V262.432H169.161V252.423H166.644V250.565H171.379Z" fill="#0F213F"/>
<path d="M364.436 140.401H366.594V148.852L372.947 140.401H375.045V152.269H372.827V143.877L366.474 152.269H364.436V140.401Z" fill="#FEFEFE"/>
<path d="M378.101 143.218H380.199V146.874H384.754V143.218H386.852V152.269H384.754V148.673H380.199V152.269H378.101V143.218Z" fill="#FEFEFE"/>
<path d="M398.3 148.613H396.742V152.269H394.644V148.613H393.146L390.928 152.269H388.471L391.407 147.594L388.65 143.218H390.928L393.086 146.874H394.644V143.218H396.742V146.874H398.3L400.518 143.218H402.795L400.038 147.594L403.035 152.269H400.518L398.3 148.613Z" fill="#FEFEFE"/>
<path d="M412.745 147.773C412.745 147.953 412.745 148.133 412.685 148.432H405.613C405.732 149.092 406.092 149.631 406.571 149.991C407.111 150.41 407.77 150.59 408.549 150.59C409.508 150.59 410.348 150.23 411.007 149.631L412.146 150.89C411.726 151.369 411.187 151.729 410.587 152.029C409.988 152.268 409.269 152.388 408.489 152.388C407.471 152.388 406.631 152.208 405.852 151.789C405.133 151.369 404.534 150.83 404.114 150.111C403.695 149.451 403.515 148.612 403.515 147.773C403.515 146.874 403.695 146.095 404.114 145.376C404.474 144.656 405.073 144.117 405.792 143.697C406.452 143.338 407.291 143.098 408.19 143.098C409.029 143.098 409.808 143.338 410.527 143.697C411.247 144.117 411.786 144.656 412.146 145.376C412.565 146.035 412.745 146.874 412.745 147.773ZM408.19 144.836C407.471 144.836 406.931 145.016 406.452 145.435C405.972 145.795 405.672 146.334 405.613 146.994H410.707C410.647 146.334 410.348 145.855 409.868 145.435C409.448 145.016 408.849 144.836 408.19 144.836Z" fill="#FEFEFE"/>
<path d="M415.083 143.218H417.18V146.874H421.736V143.218H423.833V152.269H421.736V148.673H417.18V152.269H415.083V143.218Z" fill="#FEFEFE"/>
<path d="M435.161 147.773C435.161 147.953 435.102 148.133 435.102 148.432H428.029C428.149 149.092 428.449 149.631 428.988 149.991C429.527 150.41 430.187 150.59 430.966 150.59C431.925 150.59 432.764 150.23 433.363 149.631L434.502 150.89C434.143 151.369 433.603 151.729 433.004 152.029C432.344 152.268 431.685 152.388 430.906 152.388C429.887 152.388 429.048 152.208 428.269 151.789C427.49 151.369 426.95 150.83 426.531 150.111C426.111 149.451 425.871 148.612 425.871 147.773C425.871 146.874 426.111 146.095 426.471 145.376C426.89 144.656 427.43 144.117 428.149 143.697C428.868 143.338 429.647 143.098 430.546 143.098C431.445 143.098 432.225 143.338 432.944 143.697C433.603 144.117 434.143 144.656 434.562 145.376C434.922 146.035 435.161 146.874 435.161 147.773ZM430.546 144.836C429.887 144.836 429.288 145.016 428.868 145.435C428.389 145.795 428.089 146.334 427.969 146.994H433.124C433.004 146.334 432.764 145.855 432.284 145.435C431.805 145.016 431.266 144.836 430.546 144.836Z" fill="#FEFEFE"/>
<path d="M442.474 143.098C443.313 143.098 444.152 143.338 444.811 143.697C445.53 144.057 446.07 144.596 446.43 145.316C446.849 146.035 447.029 146.814 447.029 147.773C447.029 148.672 446.849 149.451 446.43 150.17C446.07 150.89 445.53 151.429 444.811 151.789C444.152 152.208 443.313 152.388 442.474 152.388C441.215 152.388 440.256 151.969 439.537 151.189V155.565H437.439V143.218H439.477V144.417C439.836 143.997 440.256 143.637 440.736 143.458C441.275 143.218 441.814 143.098 442.474 143.098ZM442.234 150.59C443.013 150.59 443.613 150.29 444.152 149.811C444.631 149.271 444.871 148.612 444.871 147.773C444.871 146.874 444.631 146.215 444.152 145.675C443.613 145.196 443.013 144.896 442.234 144.896C441.695 144.896 441.275 145.016 440.855 145.256C440.436 145.495 440.136 145.855 439.896 146.275C439.657 146.694 439.537 147.174 439.537 147.773C439.537 148.312 439.657 148.792 439.896 149.211C440.136 149.631 440.436 149.991 440.855 150.23C441.275 150.47 441.695 150.59 442.234 150.59Z" fill="#FEFEFE"/>
<path d="M457.218 140.401V152.269H455.001V142.259H452.543V140.401H457.218Z" fill="#FEFEFE"/>
<path d="M765.054 140.461H767.272V148.852L773.625 140.461H775.663V152.269H773.505V143.877L767.152 152.269H765.054V140.461Z" fill="#FEFEFE"/>
<path d="M778.72 143.278H780.878V146.934H785.373V143.278H787.531V152.268H785.373V148.732H780.878V152.268H778.72V143.278Z" fill="#FEFEFE"/>
<path d="M798.919 148.672H797.42V152.268H795.322V148.672H793.764L791.606 152.268H789.089L792.026 147.593L789.329 143.278H791.546L793.764 146.874H795.322V143.278H797.42V146.874H798.919L801.136 143.278H803.414L800.657 147.593L803.654 152.268H801.136L798.919 148.672Z" fill="#FEFEFE"/>
<path d="M813.364 147.833C813.364 147.953 813.364 148.193 813.364 148.432H806.231C806.351 149.092 806.711 149.631 807.25 150.051C807.729 150.41 808.389 150.59 809.168 150.59C810.187 150.59 810.966 150.29 811.625 149.631L812.764 150.95C812.345 151.429 811.865 151.789 811.206 152.029C810.606 152.268 809.887 152.388 809.108 152.388C808.149 152.388 807.25 152.208 806.531 151.789C805.752 151.429 805.152 150.89 804.733 150.171C804.373 149.451 804.133 148.672 804.133 147.773C804.133 146.874 804.313 146.095 804.733 145.376C805.152 144.656 805.692 144.117 806.411 143.757C807.13 143.338 807.909 143.158 808.808 143.158C809.707 143.158 810.487 143.338 811.146 143.757C811.865 144.117 812.405 144.656 812.764 145.376C813.184 146.095 813.364 146.874 813.364 147.833ZM808.808 144.836C808.149 144.836 807.55 145.016 807.07 145.436C806.651 145.855 806.351 146.395 806.231 147.054H811.386C811.266 146.395 811.026 145.855 810.546 145.436C810.067 145.016 809.528 144.836 808.808 144.836Z" fill="#FEFEFE"/>
<path d="M815.701 143.278H817.799V146.934H822.354V143.278H824.452V152.268H822.354V148.732H817.799V152.268H815.701V143.278Z" fill="#FEFEFE"/>
<path d="M835.78 147.833C835.78 147.953 835.78 148.193 835.72 148.432H828.647C828.767 149.092 829.127 149.631 829.606 150.051C830.146 150.41 830.805 150.59 831.584 150.59C832.543 150.59 833.382 150.29 834.042 149.631L835.181 150.95C834.761 151.429 834.222 151.789 833.622 152.029C833.023 152.268 832.304 152.388 831.524 152.388C830.505 152.388 829.666 152.208 828.887 151.789C828.168 151.429 827.569 150.89 827.149 150.171C826.729 149.451 826.55 148.672 826.55 147.773C826.55 146.874 826.729 146.095 827.149 145.376C827.509 144.656 828.108 144.117 828.827 143.757C829.487 143.338 830.326 143.158 831.225 143.158C832.064 143.158 832.843 143.338 833.562 143.757C834.281 144.117 834.821 144.656 835.181 145.376C835.6 146.095 835.78 146.874 835.78 147.833ZM831.225 144.836C830.505 144.836 829.966 145.016 829.487 145.436C829.007 145.855 828.707 146.395 828.647 147.054H833.742C833.682 146.395 833.382 145.855 832.903 145.436C832.483 145.016 831.884 144.836 831.225 144.836Z" fill="#FEFEFE"/>
<path d="M843.092 143.158C843.991 143.158 844.77 143.338 845.43 143.697C846.149 144.117 846.688 144.656 847.108 145.376C847.468 146.035 847.707 146.874 847.707 147.773C847.707 148.672 847.468 149.511 847.108 150.171C846.688 150.89 846.149 151.429 845.43 151.849C844.77 152.208 843.991 152.388 843.092 152.388C841.894 152.388 840.935 151.969 840.215 151.19V155.565H838.117V143.278H840.095V144.417C840.455 143.997 840.875 143.697 841.414 143.458C841.894 143.278 842.493 143.158 843.092 143.158ZM842.853 150.59C843.632 150.59 844.291 150.35 844.77 149.811C845.31 149.272 845.55 148.612 845.55 147.773C845.55 146.934 845.31 146.215 844.77 145.735C844.291 145.196 843.632 144.956 842.853 144.956C842.373 144.956 841.894 145.076 841.474 145.316C841.114 145.495 840.755 145.855 840.515 146.275C840.275 146.694 840.155 147.174 840.155 147.773C840.155 148.313 840.275 148.852 840.515 149.272C840.755 149.691 841.114 149.991 841.474 150.231C841.894 150.47 842.373 150.59 842.853 150.59Z" fill="#FEFEFE"/>
<path d="M862.332 150.41V152.268H853.641V150.83L858.316 146.335C858.856 145.855 859.215 145.376 859.395 145.016C859.575 144.656 859.695 144.237 859.695 143.877C859.695 143.338 859.515 142.918 859.096 142.619C858.736 142.319 858.196 142.199 857.477 142.199C856.278 142.199 855.319 142.619 854.72 143.398L853.162 142.259C853.641 141.6 854.241 141.12 855.02 140.761C855.799 140.461 856.698 140.281 857.657 140.281C858.976 140.281 859.995 140.581 860.714 141.18C861.493 141.779 861.913 142.619 861.913 143.697C861.913 144.297 861.733 144.896 861.493 145.496C861.193 146.035 860.714 146.694 859.935 147.414L856.758 150.41H862.332Z" fill="#FEFEFE"/>
<path d="M652.553 41.3852V45.7606H650.515V43.2432H641.464V45.7606H639.367L639.426 41.3852H639.906C640.685 41.3253 641.165 40.7858 641.464 39.707C641.764 38.6281 641.944 37.1297 642.004 35.1518L642.184 31.3757H650.814V41.3852H652.553ZM643.982 35.3316C643.922 36.8899 643.802 38.1486 643.562 39.1675C643.382 40.1865 643.083 40.9057 642.663 41.3852H648.657V33.2338H644.042L643.982 35.3316Z" fill="#FEFEFE"/>
<path d="M665.139 31.3757V43.2432H662.922V38.1486H656.808V43.2432H654.591V31.3757H656.808V36.2906H662.922V31.3757H665.139Z" fill="#FEFEFE"/>
<path d="M572.117 256.798C573.196 256.978 574.035 257.338 574.635 257.937C575.174 258.537 575.474 259.316 575.474 260.215C575.474 260.934 575.294 261.534 574.934 262.133C574.635 262.672 574.095 263.092 573.376 263.451C572.657 263.811 571.818 263.931 570.799 263.931C569.96 263.931 569.121 263.811 568.341 263.571C567.562 263.332 566.903 263.032 566.363 262.552L567.322 260.874C567.742 261.234 568.221 261.534 568.881 261.713C569.48 261.953 570.139 262.013 570.739 262.013C571.518 262.013 572.177 261.893 572.597 261.534C573.076 261.234 573.256 260.814 573.256 260.215C573.256 259.675 573.076 259.256 572.657 258.956C572.237 258.657 571.578 258.477 570.679 258.477H569.6V256.978L572.297 253.802H566.903V251.944H574.994V253.382L572.117 256.798Z" fill="#0F213F"/>
<path d="M374.745 262.192V264.05H365.994V262.612L370.669 258.117C371.209 257.637 371.568 257.158 371.748 256.798C371.928 256.438 372.048 256.079 372.048 255.659C372.048 255.12 371.868 254.7 371.508 254.401C371.089 254.101 370.549 253.981 369.83 253.981C368.631 253.981 367.732 254.401 367.073 255.18L365.515 254.041C365.994 253.382 366.594 252.902 367.373 252.602C368.212 252.243 369.051 252.063 370.01 252.063C371.329 252.063 372.347 252.363 373.127 252.962C373.846 253.561 374.265 254.401 374.265 255.479C374.265 256.079 374.146 256.678 373.846 257.278C373.606 257.817 373.067 258.476 372.288 259.195L369.111 262.192H374.745Z" fill="#0F213F"/>
<path d="M778.001 261.294H775.903V263.991H773.745V261.294H767.272V259.795L773.086 252.123H775.423L769.969 259.436H773.805V257.038H775.903V259.436H778.001V261.294Z" fill="#0F213F"/>
<path d="M534.717 361.868C535.736 361.868 536.635 362.047 537.354 362.347C538.133 362.707 538.732 363.186 539.092 363.846C539.512 364.445 539.751 365.224 539.751 366.063C539.751 366.962 539.512 367.682 539.092 368.341C538.732 368.94 538.133 369.42 537.354 369.779C536.635 370.139 535.736 370.319 534.717 370.319H532.019V373.735H529.802V361.868H534.717ZM534.597 368.461C535.556 368.461 536.275 368.221 536.755 367.801C537.294 367.442 537.534 366.842 537.534 366.063C537.534 365.344 537.294 364.745 536.755 364.325C536.275 363.906 535.556 363.726 534.597 363.726H532.019V368.461H534.597Z" fill="#FEFEFE"/>
<path d="M550.18 364.685L545.985 374.455C545.565 375.414 545.086 376.133 544.546 376.493C543.947 376.912 543.288 377.092 542.449 377.092C542.029 377.092 541.549 377.032 541.13 376.912C540.71 376.732 540.351 376.553 540.051 376.253L540.89 374.695C541.13 374.934 541.37 375.054 541.609 375.174C541.909 375.294 542.149 375.354 542.449 375.354C542.808 375.354 543.108 375.234 543.348 375.054C543.647 374.874 543.827 374.575 544.067 374.095L544.187 373.736L540.231 364.685H542.449L545.325 371.338L548.143 364.685H550.18Z" fill="#FEFEFE"/>
<path d="M555.395 370.079H553.777V373.736H551.679V364.685H553.777V368.341H555.455L558.152 364.685H560.43L557.133 369.001L560.609 373.736H558.152L555.395 370.079Z" fill="#FEFEFE"/>
<path d="M565.824 373.855C564.925 373.855 564.086 373.615 563.366 373.256C562.647 372.836 562.048 372.297 561.628 371.578C561.209 370.858 561.029 370.079 561.029 369.18C561.029 368.281 561.209 367.502 561.628 366.783C562.048 366.123 562.647 365.584 563.366 365.164C564.086 364.745 564.925 364.565 565.824 364.565C566.783 364.565 567.562 364.745 568.341 365.164C569.06 365.584 569.6 366.123 570.019 366.783C570.439 367.502 570.679 368.281 570.679 369.18C570.679 370.079 570.439 370.858 570.019 371.578C569.6 372.297 569.06 372.836 568.341 373.256C567.562 373.615 566.783 373.855 565.824 373.855ZM565.824 371.997C566.603 371.997 567.262 371.757 567.742 371.218C568.281 370.738 568.521 370.019 568.521 369.18C568.521 368.341 568.281 367.682 567.742 367.142C567.262 366.603 566.603 366.363 565.824 366.363C565.045 366.363 564.385 366.603 563.906 367.142C563.426 367.682 563.187 368.341 563.187 369.18C563.187 370.019 563.426 370.738 563.906 371.218C564.385 371.757 565.045 371.997 565.824 371.997Z" fill="#FEFEFE"/>
<path d="M579.25 369.001C580.389 369.36 580.928 370.079 580.928 371.158C580.928 371.997 580.628 372.597 580.029 373.076C579.43 373.496 578.531 373.736 577.332 373.736H572.717V364.685H577.152C578.231 364.685 579.13 364.865 579.729 365.284C580.329 365.704 580.688 366.243 580.688 367.023C580.688 367.502 580.568 367.862 580.329 368.221C580.089 368.521 579.729 368.821 579.25 369.001ZM574.755 368.461H576.972C578.051 368.461 578.59 368.042 578.59 367.322C578.59 366.603 578.051 366.243 576.972 366.243H574.755V368.461ZM577.152 372.177C578.351 372.177 578.89 371.818 578.89 371.038C578.89 370.619 578.77 370.319 578.471 370.139C578.231 369.96 577.811 369.84 577.212 369.84H574.755V372.177H577.152Z" fill="#FEFEFE"/>
<path d="M587.221 373.855C586.322 373.855 585.483 373.615 584.764 373.256C584.045 372.836 583.445 372.297 583.026 371.578C582.606 370.858 582.427 370.079 582.427 369.18C582.427 368.281 582.606 367.502 583.026 366.783C583.445 366.123 584.045 365.584 584.764 365.164C585.483 364.745 586.322 364.565 587.221 364.565C588.18 364.565 588.96 364.745 589.739 365.164C590.458 365.584 590.997 366.123 591.417 366.783C591.837 367.502 592.076 368.281 592.076 369.18C592.076 370.079 591.837 370.858 591.417 371.578C590.997 372.297 590.458 372.836 589.739 373.256C588.96 373.615 588.18 373.855 587.221 373.855ZM587.221 371.997C588.001 371.997 588.66 371.757 589.139 371.218C589.679 370.738 589.919 370.019 589.919 369.18C589.919 368.341 589.679 367.682 589.139 367.142C588.66 366.603 588.001 366.363 587.221 366.363C586.442 366.363 585.783 366.603 585.303 367.142C584.824 367.682 584.584 368.341 584.584 369.18C584.584 370.019 584.824 370.738 585.303 371.218C585.783 371.757 586.442 371.997 587.221 371.997Z" fill="#FEFEFE"/>
<path d="M603.644 371.937V375.713H601.666V373.736H594.714V375.713H592.736V371.937H593.155C593.755 371.877 594.174 371.518 594.354 370.799C594.594 370.079 594.714 369.06 594.774 367.802L594.893 364.685H602.326V371.937H603.644ZM596.691 367.922C596.632 368.941 596.572 369.78 596.452 370.439C596.332 371.098 596.092 371.578 595.792 371.937H600.228V366.483H596.751L596.691 367.922Z" fill="#FEFEFE"/>
<path d="M605.562 364.685H607.66V370.619L612.695 364.685H614.613V373.736H612.455V367.742L607.48 373.736H605.562V364.685Z" fill="#FEFEFE"/>
<path d="M624.622 366.483H621.445V373.736H619.288V366.483H616.111V364.685H624.622V366.483Z" fill="#FEFEFE"/>
<path d="M634.212 369.24C634.212 369.42 634.212 369.6 634.152 369.899H627.079C627.199 370.559 627.559 371.038 628.038 371.458C628.578 371.817 629.237 372.057 630.016 372.057C630.975 372.057 631.815 371.697 632.474 371.038L633.613 372.357C633.193 372.836 632.654 373.196 632.054 373.436C631.455 373.675 630.736 373.855 629.956 373.855C628.938 373.855 628.098 373.615 627.319 373.256C626.6 372.836 626.001 372.297 625.581 371.578C625.162 370.858 624.982 370.079 624.982 369.18C624.982 368.341 625.162 367.502 625.581 366.843C625.941 366.123 626.54 365.584 627.259 365.164C627.919 364.745 628.758 364.565 629.657 364.565C630.496 364.565 631.275 364.745 631.994 365.164C632.714 365.524 633.253 366.123 633.613 366.783C634.032 367.502 634.212 368.341 634.212 369.24ZM629.657 366.243C628.938 366.243 628.398 366.483 627.919 366.843C627.439 367.262 627.139 367.802 627.079 368.461H632.174C632.114 367.802 631.815 367.262 631.335 366.902C630.915 366.483 630.316 366.243 629.657 366.243Z" fill="#FEFEFE"/>
<path d="M644.581 364.685V373.736H642.483V366.483H639.067L639.007 368.281C638.947 369.48 638.827 370.439 638.647 371.278C638.527 372.057 638.228 372.717 637.868 373.196C637.449 373.616 636.909 373.855 636.25 373.855C635.95 373.855 635.531 373.795 635.111 373.676L635.171 371.937C635.351 371.937 635.471 371.937 635.591 371.937C636.01 371.937 636.31 371.818 636.55 371.458C636.789 371.098 636.909 370.679 636.969 370.199C637.029 369.72 637.089 369.06 637.149 368.161L637.269 364.685H644.581Z" fill="#FEFEFE"/>
<path d="M651.953 367.682C653.092 367.682 653.991 367.922 654.591 368.461C655.25 368.941 655.55 369.66 655.55 370.619C655.55 371.638 655.19 372.417 654.531 372.956C653.871 373.496 652.912 373.736 651.654 373.736H647.458V364.685H649.556V367.622L651.953 367.682ZM651.474 372.177C652.073 372.177 652.553 372.057 652.912 371.758C653.212 371.518 653.392 371.098 653.392 370.619C653.392 370.079 653.212 369.72 652.912 369.48C652.613 369.24 652.133 369.12 651.474 369.12H649.556V372.177H651.474Z" fill="#FEFEFE"/>
<path d="M670.714 364.685V373.736H668.616V366.483H664.18V373.736H662.083V364.685H670.714Z" fill="#FEFEFE"/>
<path d="M678.565 364.565C679.464 364.565 680.244 364.745 680.963 365.164C681.622 365.524 682.161 366.063 682.581 366.783C683.001 367.502 683.18 368.281 683.18 369.18C683.18 370.079 683.001 370.918 682.581 371.637C682.161 372.297 681.622 372.896 680.963 373.256C680.244 373.615 679.464 373.855 678.565 373.855C677.367 373.855 676.408 373.436 675.688 372.596V376.972H673.591V364.685H675.568V365.884C675.928 365.404 676.348 365.104 676.887 364.925C677.426 364.685 677.966 364.565 678.565 364.565ZM678.326 371.997C679.105 371.997 679.764 371.757 680.244 371.218C680.783 370.738 681.023 370.019 681.023 369.18C681.023 368.341 680.783 367.682 680.244 367.142C679.764 366.603 679.105 366.363 678.326 366.363C677.846 366.363 677.367 366.483 677.007 366.723C676.587 366.962 676.228 367.262 675.988 367.682C675.808 368.161 675.688 368.641 675.688 369.18C675.688 369.779 675.808 370.259 675.988 370.679C676.228 371.098 676.587 371.458 677.007 371.697C677.367 371.877 677.846 371.997 678.326 371.997Z" fill="#FEFEFE"/>
<path d="M689.294 373.855C688.395 373.855 687.556 373.615 686.837 373.256C686.117 372.836 685.518 372.297 685.098 371.578C684.679 370.858 684.499 370.079 684.499 369.18C684.499 368.281 684.679 367.502 685.098 366.783C685.518 366.123 686.117 365.584 686.837 365.164C687.556 364.745 688.395 364.565 689.294 364.565C690.193 364.565 691.032 364.745 691.811 365.164C692.531 365.584 693.07 366.123 693.49 366.783C693.909 367.502 694.089 368.281 694.089 369.18C694.089 370.079 693.909 370.858 693.49 371.578C693.07 372.297 692.531 372.836 691.811 373.256C691.032 373.615 690.193 373.855 689.294 373.855ZM689.294 371.997C690.073 371.997 690.733 371.757 691.212 371.218C691.751 370.738 691.991 370.019 691.991 369.18C691.991 368.341 691.751 367.682 691.212 367.142C690.733 366.603 690.073 366.363 689.294 366.363C688.515 366.363 687.856 366.603 687.376 367.142C686.897 367.682 686.597 368.341 686.597 369.18C686.597 370.019 686.897 370.738 687.376 371.218C687.856 371.757 688.515 371.997 689.294 371.997Z" fill="#FEFEFE"/>
<path d="M704.638 369.24C704.638 369.42 704.638 369.6 704.638 369.899H697.505C697.685 370.559 697.985 371.038 698.524 371.458C699.004 371.817 699.663 372.057 700.442 372.057C701.461 372.057 702.24 371.697 702.9 371.038L704.039 372.357C703.619 372.836 703.139 373.196 702.48 373.436C701.881 373.675 701.162 373.855 700.382 373.855C699.423 373.855 698.524 373.615 697.805 373.256C697.026 372.836 696.427 372.297 696.007 371.578C695.647 370.858 695.408 370.079 695.408 369.18C695.408 368.341 695.647 367.502 696.007 366.843C696.427 366.123 696.966 365.584 697.685 365.164C698.404 364.745 699.184 364.565 700.083 364.565C700.982 364.565 701.761 364.745 702.42 365.164C703.139 365.524 703.679 366.123 704.098 366.783C704.458 367.502 704.638 368.341 704.638 369.24ZM700.083 366.243C699.423 366.243 698.824 366.483 698.345 366.843C697.925 367.262 697.625 367.802 697.505 368.461H702.66C702.54 367.802 702.3 367.262 701.821 366.902C701.341 366.483 700.802 366.243 700.083 366.243Z" fill="#FEFEFE"/>
<path d="M710.751 370.079H709.073V373.736H706.975V364.685H709.073V368.341H710.751L713.449 364.685H715.726L712.43 369.001L715.966 373.736H713.449L710.751 370.079Z" fill="#FEFEFE"/>
<path d="M724.477 366.483H721.3V373.736H719.203V366.483H716.026V364.685H724.477V366.483Z" fill="#FEFEFE"/>
<path d="M729.392 364.565C730.71 364.565 731.729 364.865 732.449 365.524C733.108 366.183 733.468 367.142 733.468 368.401V373.735H731.49V372.596C731.25 373.016 730.83 373.316 730.351 373.496C729.871 373.735 729.332 373.855 728.613 373.855C727.953 373.855 727.354 373.735 726.874 373.496C726.335 373.256 725.975 372.956 725.676 372.537C725.436 372.117 725.256 371.638 725.256 371.098C725.256 370.319 725.556 369.66 726.155 369.18C726.755 368.701 727.714 368.461 729.032 368.461H731.37V368.281C731.37 367.682 731.19 367.202 730.77 366.843C730.411 366.483 729.871 366.363 729.092 366.363C728.613 366.363 728.133 366.423 727.594 366.543C727.114 366.723 726.695 366.962 726.395 367.202L725.556 365.704C726.035 365.344 726.575 365.044 727.234 364.865C727.893 364.685 728.613 364.565 729.392 364.565ZM729.092 372.297C729.632 372.297 730.111 372.177 730.471 371.937C730.89 371.697 731.19 371.338 731.37 370.858V369.839H729.152C727.953 369.839 727.354 370.259 727.354 371.038C727.354 371.398 727.534 371.697 727.833 371.937C728.133 372.177 728.553 372.297 729.092 372.297Z" fill="#FEFEFE"/>
<path d="M132.48 361.868C133.499 361.868 134.398 362.047 135.117 362.347C135.896 362.707 136.496 363.186 136.855 363.846C137.275 364.445 137.515 365.224 137.515 366.063C137.515 366.962 137.275 367.682 136.855 368.341C136.496 368.94 135.896 369.42 135.117 369.779C134.398 370.139 133.499 370.319 132.48 370.319H129.783V373.735H127.565V361.868H132.48ZM132.36 368.461C133.319 368.461 134.038 368.221 134.518 367.801C135.057 367.442 135.297 366.842 135.297 366.063C135.297 365.344 135.057 364.745 134.518 364.325C134.038 363.906 133.319 363.726 132.36 363.726H129.783V368.461H132.36Z" fill="#FEFEFE"/>
<path d="M147.944 364.685L143.748 374.455C143.328 375.414 142.849 376.133 142.31 376.493C141.71 376.912 141.051 377.092 140.212 377.092C139.792 377.092 139.313 377.032 138.893 376.912C138.474 376.732 138.114 376.553 137.814 376.253L138.653 374.695C138.893 374.934 139.133 375.054 139.373 375.174C139.672 375.294 139.912 375.354 140.212 375.354C140.571 375.354 140.871 375.234 141.111 375.054C141.41 374.874 141.59 374.575 141.83 374.095L141.95 373.736L137.994 364.685H140.212L143.029 371.338L145.906 364.685H147.944Z" fill="#FEFEFE"/>
<path d="M153.158 370.079H151.54V373.736H149.442V364.685H151.54V368.341H153.218L155.915 364.685H158.193L154.896 369.001L158.373 373.736H155.915L153.158 370.079Z" fill="#FEFEFE"/>
<path d="M163.587 373.855C162.688 373.855 161.849 373.615 161.13 373.256C160.41 372.836 159.811 372.297 159.392 371.578C158.972 370.858 158.792 370.079 158.792 369.18C158.792 368.281 158.972 367.502 159.392 366.783C159.811 366.123 160.41 365.584 161.13 365.164C161.849 364.745 162.688 364.565 163.587 364.565C164.546 364.565 165.325 364.745 166.104 365.164C166.824 365.584 167.363 366.123 167.783 366.783C168.202 367.502 168.442 368.281 168.442 369.18C168.442 370.079 168.202 370.858 167.783 371.578C167.363 372.297 166.824 372.836 166.104 373.256C165.325 373.615 164.546 373.855 163.587 373.855ZM163.587 371.997C164.366 371.997 165.026 371.757 165.505 371.218C166.045 370.738 166.284 370.019 166.284 369.18C166.284 368.341 166.045 367.682 165.505 367.142C165.026 366.603 164.366 366.363 163.587 366.363C162.808 366.363 162.149 366.603 161.669 367.142C161.19 367.682 160.95 368.341 160.95 369.18C160.95 370.019 161.19 370.738 161.669 371.218C162.149 371.757 162.808 371.997 163.587 371.997Z" fill="#FEFEFE"/>
<path d="M177.013 369.001C178.152 369.36 178.691 370.079 178.691 371.158C178.691 371.997 178.392 372.597 177.792 373.076C177.193 373.496 176.294 373.736 175.095 373.736H170.48V364.685H174.915C175.994 364.685 176.893 364.865 177.492 365.284C178.092 365.704 178.451 366.243 178.451 367.023C178.451 367.502 178.332 367.862 178.092 368.221C177.792 368.521 177.492 368.821 177.013 369.001ZM172.518 368.461H174.735C175.814 368.461 176.354 368.042 176.354 367.322C176.354 366.603 175.814 366.243 174.735 366.243H172.518V368.461ZM174.915 372.177C176.114 372.177 176.653 371.818 176.653 371.038C176.653 370.619 176.534 370.319 176.234 370.139C175.994 369.96 175.575 369.84 174.975 369.84H172.518V372.177H174.915Z" fill="#FEFEFE"/>
<path d="M184.985 373.855C184.086 373.855 183.246 373.615 182.527 373.256C181.808 372.836 181.209 372.297 180.789 371.578C180.369 370.858 180.19 370.079 180.19 369.18C180.19 368.281 180.369 367.502 180.789 366.783C181.209 366.123 181.808 365.584 182.527 365.164C183.246 364.745 184.086 364.565 184.985 364.565C185.944 364.565 186.723 364.745 187.502 365.164C188.221 365.584 188.761 366.123 189.18 366.783C189.6 367.502 189.84 368.281 189.84 369.18C189.84 370.079 189.6 370.858 189.18 371.578C188.761 372.297 188.221 372.836 187.502 373.256C186.723 373.615 185.944 373.855 184.985 373.855ZM184.985 371.997C185.764 371.997 186.423 371.757 186.903 371.218C187.442 370.738 187.682 370.019 187.682 369.18C187.682 368.341 187.442 367.682 186.903 367.142C186.423 366.603 185.764 366.363 184.985 366.363C184.205 366.363 183.546 366.603 183.067 367.142C182.587 367.682 182.347 368.341 182.347 369.18C182.347 370.019 182.587 370.738 183.067 371.218C183.546 371.757 184.205 371.997 184.985 371.997Z" fill="#FEFEFE"/>
<path d="M201.407 371.937V375.713H199.429V373.736H192.477V375.713H190.499V371.937H190.918C191.518 371.877 191.937 371.518 192.117 370.799C192.357 370.079 192.477 369.06 192.537 367.802L192.657 364.685H200.089V371.937H201.407ZM194.455 367.922C194.395 368.941 194.335 369.78 194.215 370.439C194.095 371.098 193.855 371.578 193.556 371.937H197.991V366.483H194.515L194.455 367.922Z" fill="#FEFEFE"/>
<path d="M203.325 364.685H205.423V370.619L210.458 364.685H212.376V373.736H210.218V367.742L205.243 373.736H203.325V364.685Z" fill="#FEFEFE"/>
<path d="M222.385 366.483H219.209V373.736H217.051V366.483H213.874V364.685H222.385V366.483Z" fill="#FEFEFE"/>
<path d="M231.975 369.24C231.975 369.42 231.975 369.6 231.915 369.899H224.843C224.963 370.559 225.262 371.038 225.802 371.458C226.341 371.817 227 372.057 227.78 372.057C228.739 372.057 229.578 371.697 230.237 371.038L231.376 372.357C230.956 372.836 230.417 373.196 229.817 373.436C229.218 373.675 228.499 373.855 227.72 373.855C226.701 373.855 225.862 373.615 225.082 373.256C224.363 372.836 223.764 372.297 223.344 371.578C222.925 370.858 222.745 370.079 222.745 369.18C222.745 368.341 222.925 367.502 223.344 366.843C223.704 366.123 224.303 365.584 225.022 365.164C225.682 364.745 226.521 364.565 227.42 364.565C228.259 364.565 229.038 364.745 229.758 365.164C230.477 365.524 231.016 366.123 231.376 366.783C231.795 367.502 231.975 368.341 231.975 369.24ZM227.42 366.243C226.701 366.243 226.161 366.483 225.682 366.843C225.202 367.262 224.903 367.802 224.843 368.461H229.937C229.877 367.802 229.578 367.262 229.098 366.902C228.679 366.483 228.079 366.243 227.42 366.243Z" fill="#FEFEFE"/>
<path d="M242.344 364.685V373.736H240.246V366.483H236.83L236.77 368.281C236.71 369.48 236.59 370.439 236.411 371.278C236.291 372.057 235.991 372.717 235.631 373.196C235.212 373.616 234.672 373.855 234.013 373.855C233.713 373.855 233.294 373.795 232.874 373.676L232.934 371.937C233.114 371.937 233.234 371.937 233.354 371.937C233.773 371.937 234.073 371.818 234.313 371.458C234.552 371.098 234.672 370.679 234.732 370.199C234.792 369.72 234.852 369.06 234.912 368.161L235.032 364.685H242.344Z" fill="#FEFEFE"/>
<path d="M249.717 367.682C250.855 367.682 251.754 367.922 252.354 368.461C253.013 368.941 253.313 369.66 253.313 370.619C253.313 371.638 252.953 372.417 252.294 372.956C251.575 373.496 250.676 373.736 249.417 373.736H245.221V364.685H247.319V367.622L249.717 367.682ZM249.237 372.177C249.836 372.177 250.316 372.057 250.676 371.758C250.975 371.518 251.155 371.098 251.155 370.619C251.155 370.079 250.975 369.72 250.676 369.48C250.376 369.24 249.896 369.12 249.237 369.12H247.319V372.177H249.237Z" fill="#FEFEFE"/>
<path d="M268.477 364.685V373.736H266.379V366.483H261.944V373.736H259.846V364.685H268.477Z" fill="#FEFEFE"/>
<path d="M276.329 364.565C277.228 364.565 278.007 364.745 278.726 365.164C279.385 365.524 279.925 366.063 280.344 366.783C280.764 367.502 280.944 368.281 280.944 369.18C280.944 370.079 280.764 370.918 280.344 371.637C279.925 372.297 279.385 372.896 278.726 373.256C278.007 373.615 277.228 373.855 276.329 373.855C275.13 373.855 274.171 373.436 273.452 372.596V376.972H271.354V364.685H273.332V365.884C273.691 365.404 274.111 365.104 274.65 364.925C275.19 364.685 275.729 364.565 276.329 364.565ZM276.089 371.997C276.868 371.997 277.527 371.757 278.007 371.218C278.546 370.738 278.786 370.019 278.786 369.18C278.786 368.341 278.546 367.682 278.007 367.142C277.527 366.603 276.868 366.363 276.089 366.363C275.609 366.363 275.13 366.483 274.77 366.723C274.351 366.962 273.991 367.262 273.751 367.682C273.571 368.161 273.452 368.641 273.452 369.18C273.452 369.779 273.571 370.259 273.751 370.679C273.991 371.098 274.351 371.458 274.77 371.697C275.13 371.877 275.609 371.997 276.089 371.997Z" fill="#FEFEFE"/>
<path d="M287.057 373.855C286.158 373.855 285.319 373.615 284.6 373.256C283.881 372.836 283.281 372.297 282.862 371.578C282.442 370.858 282.262 370.079 282.262 369.18C282.262 368.281 282.442 367.502 282.862 366.783C283.281 366.123 283.881 365.584 284.6 365.164C285.319 364.745 286.158 364.565 287.057 364.565C287.956 364.565 288.795 364.745 289.575 365.164C290.294 365.584 290.833 366.123 291.253 366.783C291.672 367.502 291.852 368.281 291.852 369.18C291.852 370.079 291.672 370.858 291.253 371.578C290.833 372.297 290.294 372.836 289.575 373.256C288.795 373.615 287.956 373.855 287.057 373.855ZM287.057 371.997C287.836 371.997 288.496 371.757 288.975 371.218C289.515 370.738 289.754 370.019 289.754 369.18C289.754 368.341 289.515 367.682 288.975 367.142C288.496 366.603 287.836 366.363 287.057 366.363C286.278 366.363 285.619 366.603 285.139 367.142C284.66 367.682 284.36 368.341 284.36 369.18C284.36 370.019 284.66 370.738 285.139 371.218C285.619 371.757 286.278 371.997 287.057 371.997Z" fill="#FEFEFE"/>
<path d="M302.401 369.24C302.401 369.42 302.401 369.6 302.401 369.899H295.269C295.448 370.559 295.748 371.038 296.288 371.458C296.767 371.817 297.426 372.057 298.206 372.057C299.224 372.057 300.004 371.697 300.663 371.038L301.802 372.357C301.382 372.836 300.903 373.196 300.243 373.436C299.644 373.675 298.925 373.855 298.146 373.855C297.187 373.855 296.288 373.615 295.568 373.256C294.789 372.836 294.19 372.297 293.77 371.578C293.411 370.858 293.171 370.079 293.171 369.18C293.171 368.341 293.411 367.502 293.77 366.843C294.19 366.123 294.729 365.584 295.448 365.164C296.168 364.745 296.947 364.565 297.846 364.565C298.745 364.565 299.524 364.745 300.183 365.164C300.903 365.524 301.442 366.123 301.862 366.783C302.221 367.502 302.401 368.341 302.401 369.24ZM297.846 366.243C297.187 366.243 296.587 366.483 296.108 366.843C295.688 367.262 295.388 367.802 295.269 368.461H300.423C300.303 367.802 300.064 367.262 299.584 366.902C299.105 366.483 298.565 366.243 297.846 366.243Z" fill="#FEFEFE"/>
<path d="M308.515 370.079H306.836V373.736H304.739V364.685H306.836V368.341H308.515L311.212 364.685H313.489L310.193 369.001L313.729 373.736H311.212L308.515 370.079Z" fill="#FEFEFE"/>
<path d="M322.24 366.483H319.064V373.736H316.966V366.483H313.789V364.685H322.24V366.483Z" fill="#FEFEFE"/>
<path d="M327.155 364.565C328.474 364.565 329.493 364.865 330.212 365.524C330.871 366.183 331.231 367.142 331.231 368.401V373.735H329.253V372.596C329.013 373.016 328.594 373.316 328.114 373.496C327.635 373.735 327.095 373.855 326.376 373.855C325.717 373.855 325.117 373.735 324.638 373.496C324.098 373.256 323.739 372.956 323.439 372.537C323.199 372.117 323.019 371.638 323.019 371.098C323.019 370.319 323.319 369.66 323.918 369.18C324.518 368.701 325.477 368.461 326.795 368.461H329.133V368.281C329.133 367.682 328.953 367.202 328.534 366.843C328.174 366.483 327.635 366.363 326.855 366.363C326.376 366.363 325.896 366.423 325.357 366.543C324.877 366.723 324.458 366.962 324.158 367.202L323.319 365.704C323.799 365.344 324.338 365.044 324.997 364.865C325.657 364.685 326.376 364.565 327.155 364.565ZM326.855 372.297C327.395 372.297 327.814 372.177 328.234 371.937C328.653 371.697 328.953 371.338 329.133 370.858V369.839H326.915C325.717 369.839 325.117 370.259 325.117 371.038C325.117 371.398 325.297 371.697 325.597 371.937C325.896 372.177 326.316 372.297 326.855 372.297Z" fill="#FEFEFE"/>
</svg>
