<svg width="37" height="37" viewBox="0 0 37 37" fill="none" xmlns="http://www.w3.org/2000/svg">
<path d="M25.9018 18.9148C25.9018 22.9577 22.6243 26.2352 18.5813 26.2352C14.5382 26.2352 11.2607 22.9577 11.2607 18.9148C11.2607 14.8717 14.5382 11.5941 18.5813 11.5941C22.6243 11.5941 25.9018 14.8717 25.9018 18.9148ZM25.9018 18.9148V21.3549C25.9018 24.0504 28.0869 26.2352 30.7823 26.2352C32.5136 26.2352 34.0346 25.3337 34.9008 23.9742C35.3832 23.2175 35.6626 22.3189 35.6626 21.3549V18.9148C35.6626 9.48103 28.0151 1.83347 18.5813 1.83347C9.14756 1.83347 1.5 9.48103 1.5 18.9148C1.5 28.3486 9.14756 35.9961 18.5813 35.9961C22.2105 35.9961 25.5753 34.8643 28.3421 32.9343" stroke="#32BBFF" stroke-width="2" stroke-linecap="round" stroke-linejoin="round"/>
</svg>
