<svg width="70" height="70" viewBox="0 0 70 70" fill="none" xmlns="http://www.w3.org/2000/svg">
<path d="M65.3122 15.0197C63.9588 13.6663 61.7187 13.6663 60.3653 15.0197L59.355 16.0277C58.0016 17.381 58.0016 19.621 59.355 20.9743L63.0254 24.647C64.3835 26.0003 66.6189 26.0003 67.9769 24.647L68.985 23.6367C70.3383 22.2833 70.3383 20.048 68.985 18.69L65.3122 15.0197ZM63.6648 16.6693L67.3353 20.3397C67.8066 20.811 67.8066 21.518 67.3353 21.9893L66.3249 22.9997C65.8582 23.471 65.1465 23.471 64.6752 22.9997L61.0047 19.3293C60.5334 18.858 60.5334 18.151 61.0047 17.6797L62.0151 16.6693C62.4864 16.198 63.1934 16.198 63.6648 16.6693ZM55.7079 21.0093C55.0078 20.9533 54.1538 21.1493 53.5191 21.7887L29.5083 45.8407C29.072 46.284 28.61 46.7413 28.3346 47.4553C28.0616 48.1693 28.0033 48.9487 28.0033 50.1667V53.6667C28.0033 54.845 29.0066 56 30.3367 56H33.8368C35.0595 56 35.8552 55.93 36.5669 55.6547C37.2809 55.3747 37.7406 54.915 38.1629 54.4927L62.1737 30.436C63.3288 29.2787 63.2238 27.5053 62.1737 26.4553L57.5069 21.7887C57.0122 21.2987 56.4079 21.0653 55.7079 21.0093ZM55.8525 23.436L60.5194 28.1027C60.608 28.1913 60.6967 28.6113 60.5194 28.7887L36.5086 52.8407C36.0885 53.2607 35.9649 53.3843 35.7222 53.48C35.4772 53.5733 34.9475 53.6667 33.8321 53.6667H30.3343V50.1667C30.3343 49.0467 30.423 48.5217 30.514 48.2883C30.6027 48.055 30.724 47.9313 31.1604 47.495L55.1712 23.4383C55.3812 23.2283 55.7475 23.3333 55.8525 23.4383V23.436ZM10.5004 25.6667H40.8347C41.4811 25.6667 42.0014 26.187 42.0014 26.8333C42.0014 27.4797 41.4811 28 40.8347 28H10.5004C9.854 28 9.33364 27.4797 9.33364 26.8333C9.33364 26.187 9.854 25.6667 10.5004 25.6667ZM10.5004 18.6667H40.8347C41.4811 18.6667 42.0014 19.187 42.0014 19.8333C42.0014 20.4797 41.4811 21 40.8347 21H10.5004C9.854 21 9.33364 20.4797 9.33364 19.8333C9.33364 19.187 9.854 18.6667 10.5004 18.6667ZM10.5004 11.6667H40.8347C41.4811 11.6667 42.0014 12.187 42.0014 12.8333C42.0014 13.4797 41.4811 14 40.8347 14H10.5004C9.854 14 9.33364 13.4797 9.33364 12.8333C9.33364 12.187 9.854 11.6667 10.5004 11.6667ZM3.50012 0C1.58205 0 0 1.582 0 3.5V66.5C0 68.418 1.58205 70 3.50012 70H47.8349C49.753 70 51.335 68.418 51.335 66.5V47.8333C51.335 46.2747 49.0016 46.3213 49.0016 47.8333V66.5C49.0016 67.1673 48.5023 67.6667 47.8349 67.6667H3.50012C2.83276 67.6667 2.33341 67.1673 2.33341 66.5V3.5C2.33341 2.83267 2.83276 2.33333 3.50012 2.33333H47.8349C48.5023 2.33333 49.0016 2.83267 49.0016 3.5V19.8333C49.0016 21.4013 51.335 21.3453 51.335 19.8333V3.5C51.335 1.582 49.753 0 47.8349 0H3.50012Z" fill="#32BBFF"/>
</svg>
