<svg width="44" height="70" viewBox="0 0 44 70" fill="none" xmlns="http://www.w3.org/2000/svg">
<path fill-rule="evenodd" clip-rule="evenodd" d="M22.0001 0C17.4534 0 13.7501 3.36663 13.7501 7.5V45.9253C9.96112 48.3182 7.43098 52.2534 7.43098 56.7554C7.43098 64.0559 13.9696 70 22.0001 70C30.0307 70 36.5693 64.0559 36.5693 56.7554C36.5693 52.2534 34.0392 48.3182 30.2502 45.9253V7.5C30.2502 3.36663 26.5469 0 22.0001 0ZM22.0001 2.5C25.0709 2.5 27.5002 4.70839 27.5002 7.5V46.5137C27.5001 46.7278 27.5606 46.9384 27.6758 47.1253C27.791 47.3121 27.9571 47.4689 28.1581 47.5806C31.5534 49.4685 33.8193 52.8621 33.8193 56.7554C33.8193 62.7051 28.5448 67.5 22.0001 67.5C15.4555 67.5 10.181 62.7051 10.181 56.7554C10.181 52.8621 12.4469 49.4685 15.8421 47.5806C16.0432 47.4689 16.2093 47.3121 16.3245 47.1253C16.4397 46.9384 16.5002 46.7278 16.5001 46.5137V7.5C16.5001 4.70839 18.9294 2.5 22.0001 2.5Z" fill="#32BBFF"/>
<path fill-rule="evenodd" clip-rule="evenodd" d="M22.0001 6.25C21.6354 6.25 21.2857 6.3817 21.0278 6.61612C20.7699 6.85054 20.6251 7.16848 20.6251 7.5V49.7388C20.634 49.7758 20.6447 49.8125 20.6573 49.8487C17.0464 50.431 14.2817 53.3118 14.2817 56.7554C14.2817 60.6157 17.7537 63.7695 22 63.7695C26.2464 63.7695 29.7183 60.6157 29.7183 56.7554C29.7183 53.3118 26.9536 50.431 23.3428 49.8487C23.3554 49.8125 23.3662 49.7758 23.3751 49.7388V7.5C23.3751 7.16848 23.2302 6.85054 22.9724 6.61612C22.7145 6.3817 22.3648 6.25 22.0001 6.25ZM22.0001 52.2388C24.7602 52.2388 26.9684 54.2461 26.9684 56.7554C26.9684 59.2646 24.7602 61.2695 22.0001 61.2695C19.2399 61.2695 17.0318 59.2646 17.0318 56.7554C17.0318 54.2461 19.2399 52.2388 22.0001 52.2388Z" fill="#32BBFF"/>
<path fill-rule="evenodd" clip-rule="evenodd" d="M5.50001 6.25C5.13533 6.25 4.78559 6.3817 4.52773 6.61612C4.26987 6.85054 4.125 7.16848 4.125 7.5C4.125 7.83152 4.26987 8.14946 4.52773 8.38388C4.78559 8.6183 5.13533 8.75 5.50001 8.75H8.25002C8.61469 8.75 8.96443 8.6183 9.2223 8.38388C9.48016 8.14946 9.62503 7.83152 9.62503 7.5C9.62503 7.16848 9.48016 6.85054 9.2223 6.61612C8.96443 6.3817 8.61469 6.25 8.25002 6.25H5.50001Z" fill="#32BBFF"/>
<path fill-rule="evenodd" clip-rule="evenodd" d="M1.37501 11.25C1.01033 11.25 0.660593 11.3817 0.402729 11.6161C0.144865 11.8505 0 12.1685 0 12.5C0 12.8315 0.144865 13.1495 0.402729 13.3839C0.660593 13.6183 1.01033 13.75 1.37501 13.75H8.25004C8.61471 13.75 8.96445 13.6183 9.22232 13.3839C9.48018 13.1495 9.62504 12.8315 9.62504 12.5C9.62504 12.1685 9.48018 11.8505 9.22232 11.6161C8.96445 11.3817 8.61471 11.25 8.25004 11.25H1.37501Z" fill="#32BBFF"/>
<path fill-rule="evenodd" clip-rule="evenodd" d="M5.50001 16.25C5.13533 16.25 4.78559 16.3817 4.52773 16.6161C4.26987 16.8505 4.125 17.1685 4.125 17.5C4.125 17.8315 4.26987 18.1495 4.52773 18.3839C4.78559 18.6183 5.13533 18.75 5.50001 18.75H8.25002C8.61469 18.75 8.96443 18.6183 9.2223 18.3839C9.48016 18.1495 9.62503 17.8315 9.62503 17.5C9.62503 17.1685 9.48016 16.8505 9.2223 16.6161C8.96443 16.3817 8.61469 16.25 8.25002 16.25H5.50001Z" fill="#32BBFF"/>
<path fill-rule="evenodd" clip-rule="evenodd" d="M1.37501 21.25C1.01033 21.25 0.660593 21.3817 0.402729 21.6161C0.144865 21.8505 0 22.1685 0 22.5C0 22.8315 0.144865 23.1495 0.402729 23.3839C0.660593 23.6183 1.01033 23.75 1.37501 23.75H8.25004C8.61471 23.75 8.96445 23.6183 9.22232 23.3839C9.48018 23.1495 9.62504 22.8315 9.62504 22.5C9.62504 22.1685 9.48018 21.8505 9.22232 21.6161C8.96445 21.3817 8.61471 21.25 8.25004 21.25H1.37501Z" fill="#32BBFF"/>
<path fill-rule="evenodd" clip-rule="evenodd" d="M5.50001 26.25C5.13533 26.25 4.78559 26.3817 4.52773 26.6161C4.26987 26.8505 4.125 27.1685 4.125 27.5C4.125 27.8315 4.26987 28.1495 4.52773 28.3839C4.78559 28.6183 5.13533 28.75 5.50001 28.75H8.25002C8.61469 28.75 8.96443 28.6183 9.2223 28.3839C9.48016 28.1495 9.62503 27.8315 9.62503 27.5C9.62503 27.1685 9.48016 26.8505 9.2223 26.6161C8.96443 26.3817 8.61469 26.25 8.25002 26.25H5.50001Z" fill="#32BBFF"/>
<path fill-rule="evenodd" clip-rule="evenodd" d="M1.37501 31.25C1.01033 31.25 0.660593 31.3817 0.402729 31.6161C0.144865 31.8505 0 32.1685 0 32.5C0 32.8315 0.144865 33.1495 0.402729 33.3839C0.660593 33.6183 1.01033 33.75 1.37501 33.75H8.25004C8.61471 33.75 8.96445 33.6183 9.22232 33.3839C9.48018 33.1495 9.62504 32.8315 9.62504 32.5C9.62504 32.1685 9.48018 31.8505 9.22232 31.6161C8.96445 31.3817 8.61471 31.25 8.25004 31.25H1.37501Z" fill="#32BBFF"/>
<path fill-rule="evenodd" clip-rule="evenodd" d="M5.50001 36.25C5.13533 36.25 4.78559 36.3817 4.52773 36.6161C4.26987 36.8505 4.125 37.1685 4.125 37.5C4.125 37.8315 4.26987 38.1495 4.52773 38.3839C4.78559 38.6183 5.13533 38.75 5.50001 38.75H8.25002C8.61469 38.75 8.96443 38.6183 9.2223 38.3839C9.48016 38.1495 9.62503 37.8315 9.62503 37.5C9.62503 37.1685 9.48016 36.8505 9.2223 36.6161C8.96443 36.3817 8.61469 36.25 8.25002 36.25H5.50001Z" fill="#32BBFF"/>
<path fill-rule="evenodd" clip-rule="evenodd" d="M1.37501 41.25C1.01033 41.25 0.660593 41.3817 0.402729 41.6161C0.144865 41.8505 0 42.1685 0 42.5C0 42.8315 0.144865 43.1495 0.402729 43.3839C0.660593 43.6183 1.01033 43.75 1.37501 43.75H8.25004C8.61471 43.75 8.96445 43.6183 9.22232 43.3839C9.48018 43.1495 9.62504 42.8315 9.62504 42.5C9.62504 42.1685 9.48018 41.8505 9.22232 41.6161C8.96445 41.3817 8.61471 41.25 8.25004 41.25H1.37501Z" fill="#32BBFF"/>
<path fill-rule="evenodd" clip-rule="evenodd" d="M38.5001 29.375C37.7407 29.375 37.1251 29.9347 37.1251 30.625V39.4824L35.3473 37.8662C35.0895 37.6318 34.7398 37.5001 34.3751 37.5C34.0105 37.5001 33.6608 37.6318 33.4029 37.8662C33.1451 38.1006 33.0003 38.4185 33.0003 38.75C33.0003 39.0815 33.1451 39.3994 33.4029 39.6338L37.528 43.3838C37.7858 43.6181 38.1355 43.7498 38.5001 43.7498C38.8647 43.7498 39.2144 43.6181 39.4723 43.3838L43.5973 39.6338C43.8551 39.3994 44 39.0815 44 38.75C44 38.4185 43.8551 38.1006 43.5973 37.8662C43.3395 37.6319 42.9898 37.5002 42.6252 37.5002C42.2605 37.5002 41.9108 37.6319 41.653 37.8662L39.8751 39.4824V30.625C39.8751 29.9347 39.2595 29.375 38.5001 29.375Z" fill="#32BBFF"/>
<path fill-rule="evenodd" clip-rule="evenodd" d="M38.5001 5C37.7407 5 37.1251 5.55965 37.1251 6.25V15.1074L35.3473 13.4912C35.0895 13.2568 34.7398 13.1251 34.3751 13.125C34.0105 13.1251 33.6608 13.2568 33.4029 13.4912C33.1451 13.7256 33.0003 14.0435 33.0003 14.375C33.0003 14.7065 33.1451 15.0244 33.4029 15.2588L37.528 19.0088C37.7858 19.2431 38.1355 19.3748 38.5001 19.3748C38.8647 19.3748 39.2144 19.2431 39.4723 19.0088L43.5973 15.2588C43.8551 15.0244 44 14.7065 44 14.375C44 14.0435 43.8551 13.7256 43.5973 13.4912C43.3395 13.2569 42.9898 13.1252 42.6252 13.1252C42.2605 13.1252 41.9108 13.2569 41.653 13.4912L39.8751 15.1074V6.25C39.8751 5.55965 39.2595 5 38.5001 5Z" fill="#32BBFF"/>
</svg>
