<svg width="70" height="70" viewBox="0 0 70 70" fill="none" xmlns="http://www.w3.org/2000/svg">
<path d="M16.3334 14C17.0334 14 17.5 13.5334 17.5 12.8334V7.00001H18.6666C19.3666 7.00001 19.8332 6.53339 19.8332 5.83339C19.8332 5.13339 19.3666 4.66677 18.6666 4.66677H17.5V1.16676C17.5 0.466622 17.0334 0 16.3334 0C15.6334 0 15.1667 0.466622 15.1667 1.16662V12.8333C15.1666 13.5334 15.6334 14 16.3334 14Z" fill="#32BBFF"/>
<path d="M68.8334 52.5H65.3334V51.3334C65.3334 50.6334 64.8667 50.1667 64.1667 50.1667C63.4667 50.1667 63.0001 50.6334 63.0001 51.3334V52.5H57.1667C56.4667 52.5 56.0001 52.9666 56.0001 53.6666C56.0001 54.3666 56.4667 54.8332 57.1667 54.8332H68.8334C69.5334 54.8332 70 54.3666 70 53.6666C70 52.9666 69.5334 52.5 68.8334 52.5Z" fill="#32BBFF"/>
<path d="M12.8334 63.0002H11.6667C10.9667 63.0002 10.5001 63.4669 10.5001 64.1669C10.5001 64.8669 10.9667 65.3335 11.6667 65.3335H12.8334C13.5334 65.3335 14 64.8669 14 64.1669C14 63.4669 13.5334 63.0002 12.8334 63.0002Z" fill="#32BBFF"/>
<path d="M18.6666 63.0002H17.5C16.8 63.0002 16.3334 63.4669 16.3334 64.1669C16.3334 64.8669 16.8 65.3335 17.5 65.3335H18.6666C19.3666 65.3335 19.8332 64.8669 19.8332 64.1669C19.8332 63.4669 19.3666 63.0002 18.6666 63.0002Z" fill="#32BBFF"/>
<path d="M24.5 63.0002H23.3334C22.6334 63.0002 22.1667 63.4669 22.1667 64.1669C22.1667 64.8669 22.6334 65.3335 23.3334 65.3335H24.5C25.2 65.3335 25.6666 64.8669 25.6666 64.1669C25.6666 63.4669 25.2 63.0002 24.5 63.0002Z" fill="#32BBFF"/>
<path d="M30.3334 63.0002H29.1667C28.4667 63.0002 28.0001 63.4669 28.0001 64.1669C28.0001 64.8669 28.4667 65.3335 29.1667 65.3335H30.3334C31.0334 65.3335 31.5 64.8669 31.5 64.1669C31.5 63.4669 31.0334 63.0002 30.3334 63.0002Z" fill="#32BBFF"/>
<path d="M36.1666 63.0002H35C34.3 63.0002 33.8334 63.4669 33.8334 64.1669C33.8334 64.8669 34.3 65.3335 35 65.3335H36.1666C36.8666 65.3335 37.3332 64.8669 37.3332 64.1669C37.3332 63.4669 36.8666 63.0002 36.1666 63.0002Z" fill="#32BBFF"/>
<path d="M42 63.0002H40.8334C40.1334 63.0002 39.6667 63.4669 39.6667 64.1669C39.6667 64.8669 40.1334 65.3335 40.8334 65.3335H42C42.7 65.3335 43.1666 64.8669 43.1666 64.1669C43.1666 63.4669 42.7 63.0002 42 63.0002Z" fill="#32BBFF"/>
<path d="M47.8334 63.0002H46.6667C45.9667 63.0002 45.5001 63.4669 45.5001 64.1669C45.5001 64.8669 45.9667 65.3335 46.6667 65.3335H47.8334C48.5334 65.3335 49 64.8669 49 64.1669C49 63.4669 48.5334 63.0002 47.8334 63.0002Z" fill="#32BBFF"/>
<path d="M53.6666 63.0002H52.5C51.8 63.0002 51.3334 63.4669 51.3334 64.1669C51.3334 64.8669 51.8 65.3335 52.5 65.3335H53.6666C54.3666 65.3335 54.8332 64.8669 54.8332 64.1669C54.8332 63.4669 54.3666 63.0002 53.6666 63.0002Z" fill="#32BBFF"/>
<path d="M59.5 63.0002H58.3334C57.6334 63.0002 57.1667 63.4669 57.1667 64.1669C57.1667 64.8669 57.6334 65.3335 58.3334 65.3335H59.5C60.2 65.3335 60.6666 64.8669 60.6666 64.1669C60.6666 63.4669 60.2 63.0002 59.5 63.0002Z" fill="#32BBFF"/>
<path d="M68.8334 63.0002H64.1667C63.4667 63.0002 63.0001 63.4669 63.0001 64.1669V68.8335C63.0001 69.5335 63.4667 70.0001 64.1667 70.0001C64.8667 70.0001 65.3334 69.5335 65.3334 68.8335V65.3335H68.8334C69.5334 65.3335 70 64.8669 70 64.1669C70 63.4669 69.5334 63.0002 68.8334 63.0002Z" fill="#32BBFF"/>
<path d="M58.3334 7H59.5C60.2 7 60.6666 6.53337 60.6666 5.83337C60.6666 5.13337 60.2 4.66675 59.5 4.66675H58.3334C57.6334 4.66675 57.1667 5.13337 57.1667 5.83337C57.1667 6.53337 57.6334 7 58.3334 7Z" fill="#32BBFF"/>
<path d="M53.6666 4.66675H52.5C51.8 4.66675 51.3334 5.13337 51.3334 5.83337C51.3334 6.53337 51.8 7.00013 52.5 7.00013H53.6666C54.3666 7.00013 54.8332 6.53351 54.8332 5.83351C54.8332 5.13351 54.3666 4.66675 53.6666 4.66675Z" fill="#32BBFF"/>
<path d="M46.6666 7H47.8332C48.5332 7 48.9999 6.53337 48.9999 5.83337C48.9999 5.13337 48.5332 4.66675 47.8332 4.66675H46.6666C45.9666 4.66675 45.5 5.13337 45.5 5.83337C45.5 6.53337 45.9666 7 46.6666 7Z" fill="#32BBFF"/>
<path d="M40.8334 7H42C42.7 7 43.1666 6.53337 43.1666 5.83337C43.1666 5.13337 42.7 4.66675 42 4.66675H40.8334C40.1334 4.66675 39.6667 5.13337 39.6667 5.83337C39.6667 6.53337 40.1334 7 40.8334 7Z" fill="#32BBFF"/>
<path d="M35 7H36.1666C36.8666 7 37.3332 6.53337 37.3332 5.83337C37.3332 5.13337 36.8666 4.66675 36.1666 4.66675H35C34.3 4.66675 33.8334 5.13337 33.8334 5.83337C33.8334 6.53337 34.3 7 35 7Z" fill="#32BBFF"/>
<path d="M29.1666 7H30.3332C31.0332 7 31.4999 6.53337 31.4999 5.83337C31.4999 5.13337 31.0332 4.66675 30.3332 4.66675H29.1666C28.4666 4.66675 28 5.13337 28 5.83337C28 6.53337 28.4666 7 29.1666 7Z" fill="#32BBFF"/>
<path d="M23.3334 7H24.5C25.2 7 25.6666 6.53337 25.6666 5.83337C25.6666 5.13337 25.2 4.66675 24.5 4.66675H23.3334C22.6334 4.66675 22.1667 5.13337 22.1667 5.83337C22.1667 6.53337 22.6334 7 23.3334 7Z" fill="#32BBFF"/>
<path d="M11.6666 7C12.3666 7 12.8332 6.53337 12.8332 5.83337C12.8332 5.13337 12.3666 4.66675 11.6666 4.66675H10.5C9.8 4.66675 9.33337 5.13337 9.33337 5.83337C9.33337 6.53337 9.8 7 10.5 7H11.6666Z" fill="#32BBFF"/>
<path d="M64.1666 7.00012H68.8332C69.5332 7.00012 69.9999 6.5335 69.9999 5.8335C69.9999 5.1335 69.5332 4.66687 68.8332 4.66687H65.3332V1.16687C65.3332 0.466866 64.8666 0.000244141 64.1666 0.000244141C63.4666 0.000244141 63 0.466729 63 1.16673V5.83336C63 6.5335 63.4666 7.00012 64.1666 7.00012Z" fill="#32BBFF"/>
<path d="M5.83338 0C5.13338 0 4.66676 0.466622 4.66676 1.16662V4.66663H1.16676C0.466621 4.66663 0 5.13339 0 5.83339C0 6.53339 0.466621 7.00001 1.16662 7.00001H5.83324C6.53324 7.00001 6.99986 6.53339 6.99986 5.83339V1.16662C7 0.466622 6.53338 0 5.83338 0Z" fill="#32BBFF"/>
<path d="M5.83337 10.5C5.13337 10.5 4.66675 10.9666 4.66675 11.6666V12.8332C4.66675 13.5332 5.13337 13.9999 5.83337 13.9999C6.53337 13.9999 6.99999 13.5332 6.99999 12.8332V11.6666C6.99999 10.9666 6.53337 10.5 5.83337 10.5Z" fill="#32BBFF"/>
<path d="M5.83337 16.3335C5.13337 16.3335 4.66675 16.8001 4.66675 17.5001V18.6667C4.66675 19.3667 5.13337 19.8334 5.83337 19.8334C6.53337 19.8334 6.99999 19.3667 6.99999 18.6667V17.5001C6.99999 16.8001 6.53337 16.3335 5.83337 16.3335Z" fill="#32BBFF"/>
<path d="M5.83337 22.1667C5.13337 22.1667 4.66675 22.6334 4.66675 23.3334V24.5C4.66675 25.2 5.13337 25.6666 5.83337 25.6666C6.53337 25.6666 6.99999 25.2001 6.99999 24.5001V23.3335C6.99999 22.6335 6.53337 22.1667 5.83337 22.1667Z" fill="#32BBFF"/>
<path d="M5.83337 28C5.13337 28 4.66675 28.4666 4.66675 29.1666V30.3332C4.66675 31.0332 5.13337 31.4999 5.83337 31.4999C6.53337 31.4999 6.99999 31.0332 6.99999 30.3332V29.1666C6.99999 28.4666 6.53337 28 5.83337 28Z" fill="#32BBFF"/>
<path d="M5.83337 33.8335C5.13337 33.8335 4.66675 34.3001 4.66675 35.0001V36.1667C4.66675 36.8667 5.13337 37.3334 5.83337 37.3334C6.53337 37.3334 6.99999 36.8667 6.99999 36.1667V35.0001C6.99999 34.3001 6.53337 33.8335 5.83337 33.8335Z" fill="#32BBFF"/>
<path d="M5.83337 39.6667C5.13337 39.6667 4.66675 40.1334 4.66675 40.8334V42C4.66675 42.7 5.13337 43.1666 5.83337 43.1666C6.53337 43.1666 6.99999 42.7001 6.99999 42.0001V40.8335C6.99999 40.1335 6.53337 39.6667 5.83337 39.6667Z" fill="#32BBFF"/>
<path d="M5.83337 45.5C5.13337 45.5 4.66675 45.9666 4.66675 46.6666V47.8332C4.66675 48.5332 5.13337 48.9999 5.83337 48.9999C6.53337 48.9999 6.99999 48.5332 6.99999 47.8332V46.6666C6.99999 45.9666 6.53337 45.5 5.83337 45.5Z" fill="#32BBFF"/>
<path d="M5.83337 51.3335C5.13337 51.3335 4.66675 51.8001 4.66675 52.5001V53.6667C4.66675 54.3667 5.13337 54.8334 5.83337 54.8334C6.53337 54.8334 6.99999 54.3667 6.99999 53.6667V52.5001C6.99999 51.8001 6.53337 51.3335 5.83337 51.3335Z" fill="#32BBFF"/>
<path d="M5.83337 57.1667C5.13337 57.1667 4.66675 57.6334 4.66675 58.3334V59.5C4.66675 60.2 5.13337 60.6666 5.83337 60.6666C6.53337 60.6666 6.99999 60.2001 6.99999 59.5001V58.3335C6.99999 57.6335 6.53337 57.1667 5.83337 57.1667Z" fill="#32BBFF"/>
<path d="M64.1666 12.8335C64.8666 12.8335 65.3332 12.3669 65.3332 11.6669V10.5001C65.3332 9.80012 64.8666 9.3335 64.1666 9.3335C63.4666 9.3335 63 9.80012 63 10.5001V11.6667C63 12.3667 63.4666 12.8335 64.1666 12.8335Z" fill="#32BBFF"/>
<path d="M64.1666 18.6666C64.8666 18.6666 65.3332 18.2 65.3332 17.5V16.3334C65.3332 15.6334 64.8666 15.1667 64.1666 15.1667C63.4666 15.1667 63 15.6334 63 16.3334V17.5C63 18.2 63.4666 18.6666 64.1666 18.6666Z" fill="#32BBFF"/>
<path d="M64.1666 24.5001C64.8666 24.5001 65.3332 24.0335 65.3332 23.3335V22.1669C65.3332 21.4669 64.8666 21.0002 64.1666 21.0002C63.4666 21.0002 63 21.4669 63 22.1669V23.3335C63 24.0335 63.4666 24.5001 64.1666 24.5001Z" fill="#32BBFF"/>
<path d="M64.1666 30.3335C64.8666 30.3335 65.3332 29.8669 65.3332 29.1669V28.0001C65.3332 27.3001 64.8666 26.8335 64.1666 26.8335C63.4666 26.8335 63 27.3001 63 28.0001V29.1667C63 29.8667 63.4666 30.3335 64.1666 30.3335Z" fill="#32BBFF"/>
<path d="M64.1666 36.1666C64.8666 36.1666 65.3332 35.7 65.3332 35V33.8334C65.3332 33.1334 64.8666 32.6667 64.1666 32.6667C63.4666 32.6667 63 33.1334 63 33.8334V35C63 35.7 63.4666 36.1666 64.1666 36.1666Z" fill="#32BBFF"/>
<path d="M64.1666 42.0001C64.8666 42.0001 65.3332 41.5335 65.3332 40.8335V39.6669C65.3332 38.9669 64.8666 38.5002 64.1666 38.5002C63.4666 38.5002 63 38.9669 63 39.6669V40.8335C63 41.5335 63.4666 42.0001 64.1666 42.0001Z" fill="#32BBFF"/>
<path d="M64.1666 47.8335C64.8666 47.8335 65.3332 47.3669 65.3332 46.6669V45.5001C65.3332 44.8001 64.8666 44.3335 64.1666 44.3335C63.4666 44.3335 63 44.8001 63 45.5001V46.6667C63 47.3667 63.4666 47.8335 64.1666 47.8335Z" fill="#32BBFF"/>
<path d="M64.1666 60.6669C64.8666 60.6669 65.3332 60.2002 65.3332 59.5002V58.3336C65.3332 57.6336 64.8666 57.167 64.1666 57.167C63.4666 57.167 63 57.6336 63 58.3336V59.5002C63 60.2002 63.4666 60.6669 64.1666 60.6669Z" fill="#32BBFF"/>
<path d="M5.83338 63.0002H1.16662C0.466621 63.0002 0 63.4669 0 64.1669C0 64.8669 0.466621 65.3335 1.16662 65.3335H4.66662V68.8335C4.66662 69.5335 5.13324 70.0001 5.83324 70.0001C6.53324 70.0001 6.99986 69.5335 6.99986 68.8335V64.1669C7 63.4669 6.53338 63.0002 5.83338 63.0002Z" fill="#32BBFF"/>
<path d="M52.5 57.1668V17.5001C52.5 16.8001 52.0334 16.3335 51.3334 16.3335H14C13.3 16.3335 12.8334 16.8001 12.8334 17.5001V57.1668C12.8334 57.8668 13.3 58.3334 14 58.3334H51.3334C52.0334 58.3336 52.5 57.8668 52.5 57.1668ZM50.1666 56.0002H15.1666V18.6667H50.1666V56.0002Z" fill="#32BBFF"/>
<path d="M16.883 43.0164L20.1834 46.3168C20.4168 46.5502 20.65 46.6668 21 46.6668C21.35 46.6668 21.5834 46.5502 21.8166 46.3168C22.2833 45.8502 22.2833 45.1502 21.8166 44.6834L20.3 43.1668H37.3334V50.8668L35.8168 49.3502C35.3501 48.8836 34.6501 48.8836 34.1834 49.3502C33.7166 49.8168 33.7168 50.5168 34.1834 50.9836L37.4838 54.284C37.6745 54.627 38.0353 54.8336 38.5 54.8336C38.9647 54.8336 39.3255 54.627 39.5162 54.284L42.8166 50.9836C43.2833 50.517 43.2833 49.817 42.8166 49.3502C42.35 48.8836 41.65 48.8836 41.1833 49.3502L39.6666 50.8668V43.1668H45.0332L43.5166 44.6834C43.05 45.1501 43.05 45.8501 43.5166 46.3168C43.75 46.5502 43.9832 46.6668 44.3333 46.6668C44.6833 46.6668 44.9166 46.5502 45.1499 46.3168L48.4503 43.0164C48.7933 42.8257 48.9999 42.4649 48.9999 42.0002C48.9999 41.5355 48.7933 41.1747 48.4503 40.9838L45.1499 37.6834C44.6833 37.2168 43.9832 37.2168 43.5165 37.6834C43.0497 38.15 43.0499 38.85 43.5165 39.3168L45.0331 40.8334H39.6665V23.8L41.1831 25.3166C41.4165 25.55 41.6497 25.6666 41.9997 25.6666C42.3497 25.6666 42.5831 25.55 42.8164 25.3166C43.283 24.85 43.283 24.15 42.8164 23.6833L39.516 20.3829C39.3252 20.0398 38.9644 19.8333 38.4997 19.8333C38.035 19.8333 37.6742 20.0398 37.4835 20.3829L34.1831 23.6833C33.7165 24.1499 33.7165 24.8499 34.1831 25.3166C34.6497 25.7834 35.3497 25.7833 35.8165 25.3166L37.3331 23.8V40.8334H20.3L21.8166 39.3168C22.2833 38.8502 22.2833 38.1502 21.8166 37.6834C21.35 37.2167 20.65 37.2168 20.1833 37.6834L16.8829 40.9838C16.5398 41.1745 16.3333 41.5353 16.3333 42.0002C16.3333 42.465 16.5398 42.8256 16.883 43.0164Z" fill="#32BBFF"/>
</svg>
