<svg width="35" height="42" viewBox="0 0 35 42" fill="none" xmlns="http://www.w3.org/2000/svg">
<path d="M31.5569 16.5811C31.5569 13.0621 30.0845 9.68719 27.4635 7.19886C24.8426 4.71053 21.2879 3.3126 17.5813 3.3126C13.8747 3.3126 10.32 4.71053 7.69905 7.19886C5.07812 9.68719 3.60569 13.0621 3.60569 16.5811C3.60569 22.0241 8.1928 29.1184 17.5813 37.6161C26.9698 29.1184 31.5569 22.0241 31.5569 16.5811ZM17.5813 41.6438C6.19273 31.8163 0.5 23.4601 0.5 16.5811C0.5 12.2801 2.29963 8.1552 5.503 5.11391C8.70636 2.07262 13.0511 0.364044 17.5813 0.364044C22.1115 0.364044 26.4562 2.07262 29.6596 5.11391C32.863 8.1552 34.6626 12.2801 34.6626 16.5811C34.6626 23.4601 28.9699 31.8163 17.5813 41.6438Z" fill="#32BBFF"/>
<path d="M17.5813 21.0039C18.8168 21.0039 20.0018 20.538 20.8754 19.7085C21.749 18.8791 22.2399 17.7541 22.2399 16.5811C22.2399 15.4081 21.749 14.2831 20.8754 13.4537C20.0018 12.6242 18.8168 12.1583 17.5813 12.1583C16.3458 12.1583 15.1609 12.6242 14.2872 13.4537C13.4136 14.2831 12.9228 15.4081 12.9228 16.5811C12.9228 17.7541 13.4136 18.8791 14.2872 19.7085C15.1609 20.538 16.3458 21.0039 17.5813 21.0039ZM17.5813 23.9525C15.5221 23.9525 13.5473 23.1759 12.0912 21.7935C10.6351 20.4111 9.81709 18.5361 9.81709 16.5811C9.81709 14.6261 10.6351 12.7512 12.0912 11.3687C13.5473 9.98634 15.5221 9.20972 17.5813 9.20972C19.6405 9.20972 21.6154 9.98634 23.0715 11.3687C24.5275 12.7512 25.3455 14.6261 25.3455 16.5811C25.3455 18.5361 24.5275 20.4111 23.0715 21.7935C21.6154 23.1759 19.6405 23.9525 17.5813 23.9525Z" fill="#32BBFF"/>
</svg>
