<svg width="35" height="35" viewBox="0 0 35 35" fill="none" xmlns="http://www.w3.org/2000/svg">
<path fill-rule="evenodd" clip-rule="evenodd" d="M12.3 2.48763C10.5244 -0.0238228 6.97119 -0.447549 4.82308 1.81402L2.07335 4.70899C1.13459 5.69731 0.421105 7.07024 0.507017 8.67087C0.68089 11.9105 2.05642 18.5411 9.2972 26.1644C17.0569 34.3339 24.4587 34.7447 27.654 34.4292C28.9626 34.3001 30.0218 33.6021 30.7986 32.7844L33.2871 30.1643C35.5733 27.7574 34.9074 23.7294 32.0468 22.0829L28.6998 20.1565C26.7754 19.0488 24.3888 19.3662 22.858 20.978L22.1422 21.7316C22.0914 21.7495 21.9324 21.7924 21.6281 21.743C20.9229 21.6284 19.4011 21.0058 16.8922 18.3645C14.3911 15.7313 13.775 14.1095 13.6581 13.3116C13.6017 12.9266 13.659 12.7237 13.6817 12.66L13.6854 12.6499L14.1145 12.1983C15.8094 10.4137 15.9294 7.62089 14.5092 5.61206L12.3 2.48763ZM6.72838 3.62376C7.64433 2.65945 9.2568 2.7352 10.1544 4.00468L12.3635 7.12914C13.103 8.17511 12.9896 9.56678 12.2091 10.3885L11.7066 10.9175L12.638 11.8022C11.7066 10.9175 11.7042 10.9201 11.7042 10.9201L11.7017 10.9227L11.6966 10.9282L11.6859 10.9398L11.6626 10.966C11.6462 10.9849 11.6282 11.0064 11.6089 11.0308C11.5704 11.0794 11.5269 11.1392 11.4812 11.2107C11.3895 11.3539 11.2901 11.5425 11.2059 11.779C11.0348 12.2601 10.9415 12.897 11.0581 13.6925C11.2871 15.2555 12.3111 17.3572 14.9869 20.1742C17.6546 22.983 19.6696 24.0872 21.2069 24.3368C21.9956 24.4649 22.6342 24.3626 23.1177 24.1718C23.354 24.0786 23.5411 23.9691 23.6814 23.8696C23.7513 23.82 23.8097 23.7729 23.8568 23.7315C23.8803 23.7109 23.9011 23.6918 23.9192 23.6743L23.9442 23.6496L23.9554 23.6382L23.9605 23.6327L23.9631 23.6303C23.9631 23.6303 23.9654 23.6277 23.042 22.7505L23.9656 23.6277L24.7634 22.7876C25.4386 22.0767 26.4907 21.917 27.3889 22.4339L30.7359 24.3605C32.174 25.1881 32.4553 27.2243 31.3818 28.3546L28.8932 30.9747C28.4043 31.4892 27.8929 31.7651 27.3957 31.8142C24.8818 32.0622 18.3225 31.8506 11.2025 24.3545C4.41204 17.2055 3.27301 11.175 3.13104 8.53004C3.09349 7.8305 3.39809 7.12994 3.97864 6.51873L6.72838 3.62376Z" fill="#32BBFF"/>
<path d="M24.1511 3.40489C24.1511 2.67923 23.563 2.09099 22.8372 2.09099C22.1116 2.09099 21.5233 2.67923 21.5233 3.40489V5.24787C21.5233 6.82189 21.5233 8.13441 21.6635 9.17641C21.8113 10.2762 22.1365 11.2692 22.9345 12.0671C23.7324 12.865 24.7254 13.1903 25.8252 13.3382C26.6321 13.4467 27.6015 13.4711 28.729 13.4766L27.2721 14.642C26.7055 15.0954 26.6136 15.9222 27.067 16.4888C27.5202 17.0554 28.347 17.1473 28.9138 16.6939L33.2934 13.1903C33.6051 12.9409 33.7864 12.5634 33.7864 12.1643C33.7864 11.7651 33.6051 11.3876 33.2934 11.1383L28.9138 7.63452C28.347 7.18122 27.5202 7.27309 27.067 7.83971C26.6136 8.40636 26.7055 9.23319 27.2721 9.6865L28.7246 10.8484C27.6298 10.8427 26.8191 10.8204 26.1753 10.7338C25.3669 10.6251 25.0209 10.4373 24.7927 10.209C24.5642 9.98066 24.3764 9.63468 24.2678 8.82625C24.1539 7.98004 24.1511 6.84559 24.1511 5.15677V3.40489Z" fill="#32BBFF"/>
</svg>
