<svg width="70" height="70" viewBox="0 0 70 70" fill="none" xmlns="http://www.w3.org/2000/svg">
<path d="M21.0028 16.3811C25.5528 17.4227 30.223 17.9514 34.8851 17.9514C39.5472 17.9514 44.2174 17.4236 48.75 16.3848C49.2114 16.2895 49.526 15.8514 49.4776 15.3721C48.8257 8.96825 44.3743 3.71435 38.7028 2.04588V0.934193C38.7028 0.418518 38.2943 0 37.791 0C37.2877 0 36.8792 0.418518 36.8792 0.934193V1.65072C36.2227 1.55169 35.5589 1.48443 34.8824 1.48443C34.2076 1.48443 33.5456 1.55169 32.8901 1.64978V0.934193C32.8901 0.418518 32.4816 0 31.9783 0C31.4749 0 31.0664 0.418518 31.0664 0.934193V2.04495C25.3968 3.71248 20.9436 8.96732 20.2925 15.3721C20.2442 15.843 20.5515 16.2774 21.0028 16.3811ZM31.0664 4.00302V6.89621C31.0664 7.41189 31.4749 7.8304 31.9783 7.8304C32.4816 7.8304 32.8901 7.41189 32.8901 6.89621V3.53405C33.5438 3.42101 34.2094 3.35188 34.8869 3.35188C35.5626 3.35188 36.2264 3.42101 36.8792 3.53312V6.89528C36.8792 7.41095 37.2877 7.82947 37.791 7.82947C38.2943 7.82947 38.7028 7.41095 38.7028 6.89528V4.00208C43.1953 5.53416 46.7313 9.66235 47.5537 14.7378C39.2371 16.5221 30.5668 16.5277 22.2146 14.7378C23.038 9.66329 26.5731 5.53603 31.0664 4.00302ZM40.5301 13.7205C38.6809 14.1446 36.7807 14.3595 34.8842 14.3595C32.9894 14.3595 31.0902 14.1446 29.2392 13.7205C28.7477 13.6075 28.4386 13.1086 28.548 12.6051C28.6584 12.1015 29.1489 11.7867 29.6358 11.8969C33.0824 12.6854 36.6969 12.6845 40.1325 11.8969C40.6249 11.7858 41.1109 12.1015 41.2212 12.6051C41.3316 13.1086 41.0216 13.6075 40.5301 13.7205ZM19.6798 20.6027C19.6971 19.9964 19.75 18.1504 21.043 17.6506C22.3204 17.1574 23.6243 18.4867 23.8723 18.7586C24.216 19.136 24.1969 19.7273 23.8294 20.0795C23.4611 20.4308 22.8839 20.4121 22.5401 20.0356C22.2876 19.7619 21.9092 19.4882 21.7077 19.4247C21.6457 19.5452 21.5253 19.8778 21.5025 20.6587C21.4095 23.9013 23.8623 24.7757 23.8869 24.7851C24.175 24.8832 24.3966 25.1223 24.4777 25.4222L24.5169 25.5689C24.5324 25.6249 24.5416 25.6828 24.547 25.7407C25.2446 34.2569 31.8132 37.0118 34.8851 37.0118C37.957 37.0118 44.5256 34.2569 45.2232 25.7407C45.2277 25.6838 45.2377 25.6268 45.2523 25.5717L45.2915 25.425C45.3718 25.1242 45.5943 24.8841 45.8824 24.7851C45.9772 24.7505 48.358 23.8565 48.2668 20.6587C48.2449 19.8787 48.1245 19.5471 48.0625 19.4256C47.8601 19.491 47.4708 19.7722 47.2291 20.0366C46.8854 20.414 46.3082 20.4327 45.9398 20.0805C45.5715 19.7283 45.5532 19.1369 45.897 18.7595C46.1441 18.4867 47.4452 17.1565 48.7263 17.6516C50.0193 18.1523 50.0721 19.9973 50.0895 20.6036C50.1825 23.8285 48.337 25.623 47.0003 26.3209C46.0894 34.978 39.4168 38.8783 34.8851 38.8783C30.3525 38.8783 23.6799 34.979 22.7699 26.3218C21.4332 25.6221 19.5868 23.8275 19.6798 20.6027ZM36.2783 20.4224C36.0121 20.4224 35.7595 20.541 35.5863 20.7484C35.5398 20.8045 35.5188 20.8736 35.4869 20.9381H34.2824C34.2505 20.8736 34.2295 20.8045 34.183 20.7484C34.0098 20.542 33.7572 20.4224 33.4909 20.4224H26.3041C26.0597 20.4224 25.8254 20.5233 25.654 20.7017C25.4825 20.8801 25.3886 21.1221 25.3923 21.3725C25.4078 22.2459 25.5537 25.1756 26.8074 26.2191C27.6071 26.8851 28.8562 27.299 30.068 27.299C31.226 27.299 32.1971 26.9234 32.8043 26.2415C33.4618 25.5035 33.8994 23.9555 34.1493 22.8055H35.62C35.8698 23.9555 36.3075 25.5035 36.9649 26.2415C37.5731 26.9234 38.5451 27.299 39.7022 27.299C40.913 27.299 42.1622 26.8851 42.9628 26.2191C44.2156 25.1756 44.3624 22.2459 44.3779 21.3725C44.3816 21.1221 44.2876 20.8801 44.1162 20.7017C43.9448 20.5233 43.7105 20.4224 43.4661 20.4224H36.2783ZM31.4576 24.9822C31.2032 25.268 30.6972 25.4306 30.068 25.4306C29.2811 25.4306 28.4331 25.1653 27.9581 24.7692C27.6435 24.5076 27.3864 23.4025 27.2742 22.2898H32.3913C32.1551 23.3866 31.8004 24.5973 31.4576 24.9822ZM41.8121 24.7701C41.337 25.1653 40.4891 25.4315 39.7022 25.4315C39.073 25.4315 38.5661 25.268 38.3117 24.9822C37.9697 24.5973 37.6141 23.3866 37.3789 22.2917H42.4959C42.3838 23.4034 42.1267 24.5076 41.8121 24.7701ZM64.5197 39.2099C55.4345 42.2526 45.9982 43.8734 36.4397 44.0322V66.5379C36.4397 67.0536 36.0312 67.4721 35.5279 67.4721C35.0246 67.4721 34.6161 67.0536 34.6161 66.5379V47.414C27.6681 47.3963 20.7804 46.6003 14.033 45.0496C13.961 45.043 13.8898 45.0272 13.8196 45.0019C10.9483 44.3349 8.09894 43.5465 5.28602 42.6057L5.79937 49.8317C5.83584 50.3465 5.45835 50.7939 4.95595 50.8313C4.93315 50.8322 4.91127 50.8332 4.88847 50.8332C4.41433 50.8332 4.01496 50.4586 3.9794 49.9672L3.36758 41.3427C3.3457 41.0297 3.47791 40.7261 3.72045 40.5346C3.96299 40.3422 4.28303 40.2889 4.57208 40.3908C7.57739 41.4455 10.6274 42.3189 13.7038 43.0523C15.6432 39.89 18.7935 37.4892 23.09 35.9048L23.0334 34.9276C23.0033 34.4129 23.3872 33.971 23.8896 33.9402C24.3875 33.8953 24.8242 34.3017 24.8534 34.8174L25.0877 38.8643L27.8122 37.8647C28.2891 37.6909 28.8088 37.9432 28.9784 38.429C29.148 38.9147 28.9018 39.45 28.4277 39.6238L24.5571 41.0447C24.4568 41.0811 24.3528 41.0998 24.2498 41.0998C24.0738 41.0998 23.8978 41.0475 23.7474 40.9447C23.5076 40.7822 23.3571 40.5141 23.3398 40.2207L23.203 37.8544C19.7692 39.1987 17.2517 41.0522 15.5858 43.4941C21.8344 44.845 28.2015 45.527 34.617 45.5456V43.1102C34.617 42.5964 35.021 42.1797 35.5224 42.176C40.9076 42.1386 46.2526 41.6136 51.521 40.6383C50.1916 39.5463 48.5394 38.5878 46.6857 37.846L46.548 40.2207C46.5307 40.5141 46.3802 40.7831 46.1404 40.9447C45.9891 41.0466 45.814 41.0998 45.638 41.0998C45.5341 41.0998 45.4301 41.0811 45.3307 41.0447L41.461 39.6238C40.9869 39.45 40.7407 38.9147 40.9103 38.429C41.0799 37.9432 41.5987 37.6891 42.0765 37.8647L44.8001 38.8643L45.0344 34.8174C45.0636 34.3017 45.494 33.8963 45.9982 33.9402C46.5006 33.971 46.8845 34.4129 46.8544 34.9276L46.7978 35.8992C49.5944 36.9399 52.0362 38.443 53.775 40.1955C57.6347 39.38 61.4488 38.3215 65.199 37.0062C65.4844 36.9072 65.8008 36.9576 66.0415 37.1426C66.2832 37.3285 66.419 37.6246 66.4044 37.9338L65.8254 50.4828C65.8017 50.9985 65.3796 51.3927 64.8717 51.3722C64.3684 51.3479 63.9799 50.9098 64.0036 50.395L64.5197 39.2099ZM68.9256 53.7264C68.1113 52.8884 66.8366 52.4801 65.0285 52.4801C63.2204 52.4801 61.9448 52.8884 61.1315 53.7264C60.0428 54.8483 60.051 56.4224 60.0583 57.8116L60.0592 64.2949C60.0592 67.1021 62.2885 69.3862 65.0285 69.3862C67.7685 69.3862 69.9979 67.1021 69.9979 64.2949L69.9988 57.8116C70.0061 56.4224 70.0152 54.8483 68.9256 53.7264ZM68.1761 57.8013L68.1752 64.2949C68.1752 66.0717 66.7637 67.5179 65.0294 67.5179C63.7511 67.5179 62.6533 66.7294 62.1609 65.6046H64.0182C64.5216 65.6046 64.93 65.1861 64.93 64.6704C64.93 64.1548 64.5216 63.7362 64.0182 63.7362H61.8828V62.1593H64.0182C64.5216 62.1593 64.93 61.7408 64.93 61.2251C64.93 60.7095 64.5216 60.2909 64.0182 60.2909H61.8819V58.5898H64.0182C64.5216 58.5898 64.93 58.1713 64.93 57.6556C64.93 57.1399 64.5216 56.7214 64.0182 56.7214H61.8983C61.9357 56.0291 62.0542 55.4257 62.4244 55.0445C62.8721 54.583 63.7483 54.3485 65.0285 54.3485C66.3087 54.3485 67.1849 54.5821 67.6326 55.0445C68.187 55.6144 68.1815 56.6765 68.1761 57.8013ZM5.30426 51.8654C3.36849 51.8654 2.00716 52.2989 1.14095 53.1911C-0.0152243 54.3822 -0.00610622 56.0684 0.00118823 57.5556L0.00210004 64.5686C0.00210004 67.5636 2.38009 70 5.30335 70C8.2266 70 10.6046 67.5636 10.6046 64.5686L10.6055 57.5547C10.6137 56.0674 10.6228 54.3812 9.46574 53.1911C8.60135 52.2989 7.23911 51.8654 5.30426 51.8654ZM5.30426 68.1316C3.38673 68.1316 1.82663 66.5332 1.82663 64.5686L1.82571 57.5453C1.81933 56.3131 1.81295 55.1482 2.43389 54.5083C2.93265 53.9945 3.89825 53.7329 5.30426 53.7329C6.71026 53.7329 7.67587 53.9935 8.17462 54.5083C8.60682 54.953 8.73265 55.6536 8.76912 56.4523H6.39751C5.8942 56.4523 5.48571 56.8709 5.48571 57.3865C5.48571 57.9022 5.8942 58.3207 6.39751 58.3207H8.7828V60.3143H6.39751C5.8942 60.3143 5.48571 60.7328 5.48571 61.2485C5.48571 61.7642 5.8942 62.1827 6.39751 62.1827H8.78189V64.0417H6.39751C5.8942 64.0417 5.48571 64.4602 5.48571 64.9759C5.48571 65.4916 5.8942 65.9101 6.39751 65.9101H8.52111C8.00321 67.2105 6.75859 68.1316 5.30426 68.1316Z" fill="#32BBFF"/>
</svg>
