<svg width="70" height="70" viewBox="0 0 70 70" fill="none" xmlns="http://www.w3.org/2000/svg">
<path d="M15.1666 32.6667H18.6666C19.3106 32.6667 19.8332 32.1441 19.8332 31.5001C19.8332 30.8562 19.3106 30.3335 18.6666 30.3335H15.1666C14.5227 30.3335 14 30.8562 14 31.5001C14 32.1441 14.5227 32.6667 15.1666 32.6667Z" fill="#32BBFF"/>
<path d="M15.1666 18.6667H24.5C25.1439 18.6667 25.6666 18.1441 25.6666 17.5001C25.6666 16.8562 25.1439 16.3335 24.5 16.3335H15.1666C14.5227 16.3335 14 16.8562 14 17.5001C14 18.1441 14.5227 18.6667 15.1666 18.6667Z" fill="#32BBFF"/>
<path d="M36.1667 30.3335H24.5001C23.8562 30.3335 23.3335 30.8562 23.3335 31.5001C23.3335 32.1441 23.8562 32.6667 24.5001 32.6667H36.1667C36.8107 32.6667 37.3334 32.1441 37.3334 31.5001C37.3334 30.8562 36.8108 30.3335 36.1667 30.3335Z" fill="#32BBFF"/>
<path d="M35.0001 51.3336H8.16674C6.17174 51.3336 4.66674 49.8286 4.66674 47.8336V12.8336C4.66674 12.1897 4.14406 11.667 3.50012 11.667C2.85617 11.667 2.3335 12.1897 2.3335 12.8336V47.8336C2.3335 51.1049 4.89547 53.667 8.16687 53.667H35.0001C35.6441 53.667 36.1667 53.1443 36.1667 52.5004C36.1667 51.8564 35.6441 51.3336 35.0001 51.3336Z" fill="#32BBFF"/>
<path d="M15.1666 25.6667H36.1666C36.8106 25.6667 37.3332 25.1441 37.3332 24.5001C37.3332 23.8562 36.8106 23.3335 36.1666 23.3335H15.1666C14.5227 23.3335 14 23.8562 14 24.5001C14 25.1441 14.5227 25.6667 15.1666 25.6667Z" fill="#32BBFF"/>
<path d="M46.6562 38.3426C46.5769 37.7651 46.0834 37.3335 45.5 37.3335H15.1666C14.5227 37.3335 14 37.8562 14 38.5001C14 41.4308 16.7288 46.6667 22.1666 46.6667H37.4441L39.6725 68.9501C39.7332 69.551 40.2395 70.0001 40.8322 70.0001C40.8707 70.0001 40.9104 69.9978 40.95 69.9942C41.5905 69.9301 42.0584 69.3584 41.9941 68.7167L39.6607 45.3834C39.6013 44.7871 39.0995 44.3334 38.4999 44.3334H25.6665V39.6667H44.4815L47.8438 64.3242C47.93 64.9635 48.5216 65.4128 49.1575 65.323C49.7957 65.2355 50.2425 64.6474 50.1562 64.0092L46.6562 38.3426ZM23.3334 44.3335H22.1668C18.9025 44.3335 17.1057 41.5744 16.5353 39.6669H23.3335L23.3334 44.3335Z" fill="#32BBFF"/>
<path d="M33.8335 18.6667C34.4774 18.6667 35.0001 18.1441 35.0001 17.5001C35.0001 16.8562 34.4774 16.3335 33.8335 16.3335H29.1669C28.5229 16.3335 28.0002 16.8562 28.0002 17.5001C28.0002 18.1441 28.5229 18.6667 29.1669 18.6667H33.8335Z" fill="#32BBFF"/>
<path d="M49 21H47.8334C47.1894 21 46.6667 21.5227 46.6667 22.1666C46.6667 22.8106 47.1894 23.3332 47.8334 23.3332H49C49.6439 23.3332 50.1666 22.8106 50.1666 22.1666C50.1666 21.5227 49.6439 21 49 21Z" fill="#32BBFF"/>
<path d="M57.2424 37.3486C56.6335 37.3474 56.0933 37.7547 56.0104 38.3567L52.5104 64.0093C52.4242 64.6475 52.8697 65.2356 53.5092 65.3231C53.5629 65.33 53.6154 65.3336 53.669 65.3336C54.2429 65.3336 54.7424 64.91 54.8228 64.3245L58.184 39.6927C62.2126 39.7941 64.9681 40.5595 66.3822 41.9712C67.2467 42.8334 67.6667 43.9884 67.6667 45.5004V64.167C67.6667 64.8109 68.1893 65.3336 68.8333 65.3336C69.4772 65.3336 69.9999 64.8109 69.9999 64.167V45.5001C69.9999 43.3663 69.3372 41.6233 68.0306 40.3201C66.0286 38.3204 62.4994 37.3486 57.2424 37.3486Z" fill="#32BBFF"/>
<path d="M68.8334 2.33338H36.1666V1.16662C36.1666 0.522676 35.6439 0 35 0C34.3561 0 33.8334 0.522676 33.8334 1.16662V2.33324H1.16662C0.522676 2.33338 0 2.85605 0 3.5V8.16662C0 8.81057 0.522676 9.33324 1.16662 9.33324H61.8332C62.4772 9.33324 62.9999 8.81057 62.9999 8.16662C62.9999 7.52268 62.4772 7 61.8332 7H2.33324V4.66662H67.6666V7H66.5C65.8561 7 65.3334 7.52268 65.3334 8.16662V36.1666C65.3334 36.8106 65.8561 37.3332 66.5 37.3332C67.1439 37.3332 67.6666 36.8106 67.6666 36.1666V9.33338H68.8332C69.4772 9.33338 69.9999 8.8107 69.9999 8.16676V3.5C70 2.85605 69.4773 2.33338 68.8334 2.33338Z" fill="#32BBFF"/>
<path d="M61.8334 51.3335C61.1894 51.3335 60.6667 51.8562 60.6667 52.5001V68.8335C60.6667 69.4774 61.1894 70.0001 61.8334 70.0001C62.4773 70.0001 63 69.4774 63 68.8335V52.5001C63 51.8562 62.4773 51.3335 61.8334 51.3335Z" fill="#32BBFF"/>
<path d="M53.6665 39.6664C53.6665 38.3796 52.6201 37.333 51.3331 37.333C50.0463 37.333 48.9998 38.3795 48.9998 39.6664C48.9998 40.5262 49.4723 41.2705 50.1664 41.6753V50.1664C50.1664 50.8103 50.6891 51.333 51.333 51.333C51.9769 51.333 52.4996 50.8103 52.4996 50.1664V41.6753C53.194 41.2706 53.6665 40.5262 53.6665 39.6664Z" fill="#32BBFF"/>
<path d="M54.8335 21H53.6669C53.0229 21 52.5002 21.5227 52.5002 22.1666C52.5002 22.8106 53.0229 23.3332 53.6669 23.3332H54.8335C55.4774 23.3332 56.0001 22.8106 56.0001 22.1666C56.0001 21.5227 55.4774 21 54.8335 21Z" fill="#32BBFF"/>
<path d="M53.6667 11.6665H49.0001C45.1396 11.6665 42.0001 14.806 42.0001 18.6665V18.9803C41.3037 19.384 40.8335 20.1376 40.8335 20.9997V23.3331C40.8335 24.2128 41.3235 24.9817 42.0456 25.3783C42.2673 27.6206 43.2426 29.5946 43.2905 29.6879C44.3474 31.8033 45.9458 34.9999 51.3335 34.9999C56.7212 34.9999 58.3195 31.8033 59.3776 29.6881C59.4242 29.5947 60.3996 27.6208 60.6213 25.3784C61.3435 24.9818 61.8335 24.2129 61.8335 23.3333V20.9999C61.8335 20.1377 61.3633 19.384 60.6669 18.9804V18.6666C60.6667 14.8061 57.5273 11.6665 53.6667 11.6665ZM59.5001 23.3333C58.8562 23.3333 58.3335 23.8559 58.3335 24.4999C58.3335 26.5183 57.2998 28.6252 57.2894 28.6451C56.0749 31.074 55.0038 32.6665 51.3335 32.6665C47.6631 32.6665 46.5922 31.074 45.3776 28.6462C45.3671 28.6251 44.3335 26.5181 44.3335 24.4999C44.3335 23.8559 43.8108 23.3333 43.1669 23.3333V20.9999C43.8108 20.9999 44.3335 20.4772 44.3335 19.8333V18.6666C44.3335 16.0929 46.4265 14 49.0001 14H53.6667C56.2405 14 58.3334 16.093 58.3334 18.6666V19.8333C58.3334 20.4772 58.856 20.9999 59.5 20.9999V23.3333H59.5001Z" fill="#32BBFF"/>
</svg>
