<svg width="70" height="70" viewBox="0 0 70 70" fill="none" xmlns="http://www.w3.org/2000/svg">
<path d="M4.71756 27.1885C3.02701 26.6496 -0.133153 24.442 0.00493159 19.9447C0.0266306 19.2218 0.0956728 17.0227 1.68266 16.4488C3.26175 15.8788 4.90891 17.4587 5.22354 17.7806C5.59538 18.1609 5.57369 18.7583 5.1762 19.1151C4.78069 19.4709 4.15635 19.452 3.78253 19.0707C3.28247 18.5649 2.57232 18.1647 2.37604 18.2166C2.37999 18.2166 2.02294 18.4997 1.97757 20.0013C1.84639 24.2353 5.30639 25.3886 5.3419 25.399C5.85774 25.5642 6.13786 26.0984 5.96525 26.593C5.82816 26.9884 5.44349 27.2395 5.03022 27.2395C4.92666 27.2376 4.82112 27.2215 4.71756 27.1885ZM18.742 17.2699C18.742 17.7909 19.1829 18.2138 19.7283 18.2138H21.9476V23.7587C21.9476 24.2797 22.3884 24.7025 22.9339 24.7025C23.4793 24.7025 23.9202 24.2797 23.9202 23.7587V17.2699C23.9202 16.749 23.4793 16.3261 22.9339 16.3261H19.7283C19.1839 16.3261 18.742 16.749 18.742 17.2699ZM17.9106 17.2699C17.9106 16.749 17.4697 16.3261 16.9242 16.3261H7.19717C6.65173 16.3261 6.21085 16.749 6.21085 17.2699C6.21085 17.7909 6.65173 18.2138 7.19717 18.2138H16.9233C17.4687 18.2138 17.9106 17.7919 17.9106 17.2699ZM10.0279 39.1051C13.3281 39.1051 15.8817 38.1943 17.6166 36.3973C19.4186 34.5333 19.8467 32.2011 19.9345 30.8883H21.9229C22.4683 30.8883 22.9092 30.4654 22.9092 29.9445V26.6685C22.9092 26.1475 22.4683 25.7246 21.9229 25.7246C21.3775 25.7246 20.9366 26.1475 20.9366 26.6685V29.0006H18.959C18.6858 29.0006 18.4234 29.1111 18.237 29.3027C18.0516 29.4952 17.9559 29.7538 17.9757 30.0152C17.9766 30.0341 18.0565 31.2422 17.6048 32.6532C15.7091 32.2181 12.9474 31.2035 12.9474 29.834C12.9474 29.313 12.5065 28.8902 11.9611 28.8902C11.4156 28.8902 10.9748 29.313 10.9748 29.834C10.9748 32.5645 14.6735 33.8726 16.7566 34.3945C16.582 34.6465 16.3857 34.8938 16.1579 35.1279C14.8106 36.5144 12.7482 37.2166 10.0289 37.2166C9.48345 37.2166 9.04257 37.6394 9.04257 38.1604C9.04257 38.6814 9.48345 39.1051 10.0279 39.1051ZM39.0543 42.5557H15.9419C13.7414 42.6284 7.5838 42.4179 5.62793 40.6086C5.27384 40.2802 5.10814 39.9395 5.10814 39.5355C5.10814 39.0145 4.66726 38.5917 4.12182 38.5917C3.57639 38.5917 3.13551 39.0145 3.13551 39.5355C3.13551 40.4595 3.51327 41.2778 4.25794 41.9668C6.69809 44.2234 12.7067 44.4566 15.0729 44.4566C15.5217 44.4566 15.8383 44.4481 15.9764 44.4434H39.0543C39.5997 44.4434 40.0406 44.0205 40.0406 43.4995C40.0406 42.9785 39.5997 42.5557 39.0543 42.5557ZM39.0543 50.3365L15.4083 50.3384C15.3392 50.3422 8.48332 50.849 8.48332 59.2462V69.0562C8.48332 69.5772 8.92421 70 9.46964 70C10.0151 70 10.456 69.5772 10.456 69.0562V59.2462C10.456 52.663 15.3294 52.2374 15.4694 52.2242H39.0533C39.5987 52.2242 40.0396 51.8013 40.0396 51.2804C40.0396 50.7594 39.5997 50.3365 39.0543 50.3365ZM70 28.3617C70 28.8827 69.5591 29.3055 69.0137 29.3055H65.315V30.5164C65.315 31.0374 64.8741 31.4602 64.3287 31.4602H61.6784C61.6666 32.8212 61.496 33.8075 61.4792 33.9056C61.3963 34.3568 60.986 34.6862 60.5077 34.6862H50.4314V38.4284C51.1169 38.6502 51.6801 38.9673 52.12 39.3902C53.3707 40.5935 53.3608 42.2971 53.3519 43.7997L53.3509 50.8849C53.3509 53.9108 50.7786 56.3722 47.6165 56.3722C44.4553 56.3722 41.883 53.9108 41.883 50.8849L41.8811 43.7987C41.8732 42.2962 41.8623 40.5935 43.1139 39.3902C43.5538 38.9673 44.117 38.6493 44.8025 38.4284V34.6862H39.0552C38.5098 34.6862 38.0689 34.2634 38.0689 33.7424V22.981C38.0689 22.46 38.5098 22.0372 39.0552 22.0372H53.6034C56.1511 22.0372 58.1494 22.8432 59.5431 24.4316C59.907 24.8469 60.2098 25.2971 60.4643 25.7681C60.5402 25.7501 60.6122 25.7237 60.6941 25.7237H64.3297C64.8751 25.7237 65.316 26.1465 65.316 26.6675V27.4179H69.0147C69.5591 27.4179 70 27.8407 70 28.3617ZM50.7214 40.7219C50.1809 40.2028 49.1374 39.9385 47.6165 39.9385C46.0966 39.9385 45.0511 40.2018 44.5125 40.7219C43.8399 41.3684 43.8468 42.5444 43.8537 43.7893L43.8557 50.8868C43.8557 52.8716 45.5433 54.4865 47.6165 54.4865C49.1897 54.4865 50.536 53.5559 51.0972 52.2421H48.7991C48.2537 52.2421 47.8128 51.8193 47.8128 51.2983C47.8128 50.7773 48.2537 50.3545 48.7991 50.3545H51.3783L51.3793 48.4763H48.7991C48.2537 48.4763 47.8128 48.0534 47.8128 47.5325C47.8128 47.0115 48.2537 46.5886 48.7991 46.5886H51.3793L51.3803 44.5745H48.7991C48.2537 44.5745 47.8128 44.1517 47.8128 43.6307C47.8128 43.1097 48.2537 42.6869 48.7991 42.6869H51.3645C51.326 41.8799 51.1889 41.1721 50.7214 40.7219ZM48.4588 34.6862H46.7742V38.0792C47.0434 38.0622 47.3226 38.0509 47.6165 38.0509C47.9104 38.0509 48.1895 38.0622 48.4588 38.0792V34.6862ZM58.0291 25.6416C57.0131 24.4864 55.5642 23.9248 53.6025 23.9248H40.0406V32.7985H45.7879H49.4451H59.6338C59.7837 31.245 59.8745 27.7406 58.0291 25.6416ZM63.3424 27.6113H61.6794V29.5726H63.3424V27.6113ZM69.0137 0C68.4682 0 68.0274 0.42283 68.0274 0.943816V22.981C68.0274 23.502 68.4682 23.9248 69.0137 23.9248C69.5591 23.9248 70 23.502 70 22.981V0.943816C70 0.42283 69.5591 0 69.0137 0ZM69.0137 32.1681C68.4682 32.1681 68.0274 32.5909 68.0274 33.1119V68.4267C68.0274 68.9476 68.4682 69.3705 69.0137 69.3705C69.5591 69.3705 70 68.9476 70 68.4267V33.1119C70 32.5909 69.5591 32.1681 69.0137 32.1681ZM64.2478 24.5977C64.4283 24.7318 64.6413 24.7969 64.8524 24.7969C65.1463 24.7969 65.4373 24.6714 65.6316 24.4326C65.966 24.0211 65.889 23.4283 65.459 23.1084L63.1165 21.3642C62.6864 21.0433 62.067 21.1188 61.7327 21.5294C61.3983 21.9409 61.4753 22.5336 61.9053 22.8536L64.2478 24.5977ZM64.2478 32.9977L61.9053 34.7419C61.4753 35.0618 61.3983 35.6545 61.7327 36.066C61.927 36.3048 62.2179 36.4304 62.5119 36.4304C62.7229 36.4304 62.937 36.3652 63.1165 36.2312L65.459 34.487C65.889 34.1671 65.966 33.5744 65.6316 33.1629C65.2992 32.7523 64.6798 32.6777 64.2478 32.9977ZM45.0955 25.4113H41.8485C41.5763 25.4113 41.3553 25.6227 41.3553 25.8832C41.3553 26.1437 41.5763 26.3551 41.8485 26.3551H45.0955C45.3677 26.3551 45.5886 26.1437 45.5886 25.8832C45.5886 25.6227 45.3677 25.4113 45.0955 25.4113ZM45.0955 26.9799H41.8485C41.5763 26.9799 41.3553 27.1913 41.3553 27.4518C41.3553 27.7123 41.5763 27.9237 41.8485 27.9237H45.0955C45.3677 27.9237 45.5886 27.7123 45.5886 27.4518C45.5886 27.1913 45.3677 26.9799 45.0955 26.9799ZM0.986318 11.7581C0.440884 11.7581 0 12.1809 0 12.7019C0 13.2229 0.440884 13.6457 0.986318 13.6457H19.7283C20.2659 13.6457 20.7038 13.2342 20.7147 12.7198C20.7176 12.5499 20.7452 9.84589 19.6948 6.97763H20.8074C21.3528 6.97763 21.7937 6.5548 21.7937 6.03382C21.7937 5.51283 21.3528 5.09 20.8074 5.09H18.8367C18.3672 4.25095 17.7843 3.4421 17.0515 2.72668C15.2505 0.969299 12.8872 0.0783367 10.0289 0.0783367H0.986318C0.440884 0.0783367 0 0.501166 0 1.02215C0 1.54314 0.440884 1.96597 0.986318 1.96597H10.0279C12.3339 1.96597 14.2207 2.66439 15.6371 4.04236C15.9705 4.36609 16.2595 4.72097 16.5248 5.08906H0.986318C0.440884 5.08906 0 5.51189 0 6.03287C0 6.55386 0.440884 6.97669 0.986318 6.97669H17.5841C18.3643 8.79637 18.6217 10.6736 18.7036 11.7571H0.986318V11.7581Z" fill="#32BBFF"/>
</svg>
