<svg width="71" height="56" viewBox="0 0 71 56" fill="none" xmlns="http://www.w3.org/2000/svg">
<path d="M68.3076 43.952H68.232V37.5235C68.232 21.48 57.5562 7.57463 42.7291 4.12815C42.6503 3.29864 42.3121 2.52698 41.75 1.91623C41.0745 1.18218 40.1671 0.777832 39.1948 0.777832H32.1073C31.1349 0.777832 30.2275 1.18218 29.552 1.91623C28.9901 2.52698 28.6517 3.29864 28.5729 4.12815C13.7458 7.57463 3.06997 21.48 3.06997 37.5235V43.952H2.99436C1.70209 43.952 0.651001 45.0556 0.651001 46.4122V48.031C0.651001 49.1022 1.29645 50.0434 2.25704 50.3731C11.3654 53.4998 23.225 55.2217 35.651 55.2217C48.077 55.2217 59.9366 53.4998 69.045 50.3731C70.0056 50.0434 70.651 49.1022 70.651 48.031V46.4122C70.651 45.0556 69.5998 43.952 68.3076 43.952ZM31.183 3.5705C31.4273 3.3051 31.7556 3.15869 32.1073 3.15869H39.1946C39.5463 3.15869 39.8745 3.30481 40.1188 3.5705C40.3631 3.83605 40.4911 4.18556 40.479 4.55445L39.4363 36.3001C39.4123 37.0307 38.8482 37.603 38.152 37.603H33.1501C32.454 37.603 31.8899 37.0307 31.8658 36.3003L30.8232 4.5546C30.8109 4.18542 30.9387 3.83605 31.183 3.5705ZM68.3832 48.0312C68.3832 48.0632 68.37 48.1001 68.3403 48.1102C59.4533 51.1607 47.844 52.8408 35.651 52.8408C23.458 52.8408 11.8487 51.1607 2.96182 48.11C2.93215 48.0998 2.91889 48.063 2.91889 48.031V46.4122C2.91889 46.3684 2.9528 46.3328 2.9945 46.3328H46.5365C47.1627 46.3328 47.6705 45.7999 47.6705 45.1423C47.6705 44.4849 47.1629 43.9518 46.5365 43.9518H5.33786V37.5235C5.33786 25.5589 11.7195 14.8732 21.3553 9.45153L23.8157 27.5343C23.8966 28.1281 24.3815 28.5565 24.9369 28.5565C24.9902 28.5565 25.0442 28.5525 25.0986 28.5445C25.7187 28.4515 26.1495 27.8485 26.0609 27.1977L23.4974 8.3572C25.1299 7.60678 26.8419 7.00263 28.6198 6.55996L29.5994 36.3825C29.6657 38.4019 31.2254 39.984 33.1503 39.984H38.1521C40.0769 39.984 41.6365 38.4019 41.703 36.3825L42.6826 6.56011C44.4603 7.00292 46.1725 7.60707 47.805 8.35734L45.2416 27.1978C45.1531 27.8488 45.5839 28.4516 46.2038 28.5446C46.2582 28.5527 46.3122 28.5567 46.3655 28.5567C46.9207 28.5567 47.4058 28.1281 47.4867 27.5344L49.9471 9.45167C59.5829 14.8732 65.9646 25.5588 65.9646 37.5235V43.952H58.6316C58.0055 43.952 57.4977 44.4849 57.4977 45.1425C57.4977 45.7999 58.0053 46.333 58.6316 46.333H68.3079C68.3496 46.333 68.3835 46.3686 68.3835 46.4123V48.0312H68.3832Z" fill="#32BBFF"/>
</svg>
