<svg width="70" height="70" viewBox="0 0 70 70" fill="none" xmlns="http://www.w3.org/2000/svg">
<path d="M25.3571 70C25.0595 70 24.881 69.9338 24.6429 69.8015C23.5714 69.0076 18.5119 64.8393 22.7381 56.569C23.869 54.3195 24.1667 52.5331 23.75 51.0775C23.2738 49.4234 21.7262 48.7618 21.7262 48.7618C21.0119 48.431 20.6548 47.5047 20.9524 46.7108C21.1905 46.0492 21.6667 45.6522 22.2619 45.6522C22.4405 45.6522 22.619 45.7183 22.7976 45.7845C23.0357 45.7845 25.5357 46.9754 26.5476 49.9527C27.3214 52.3346 26.9048 55.1134 25.2976 58.2231C22.3214 64.0454 25.4762 66.6257 26.131 67.0889C26.7857 67.4858 27.0238 68.4783 26.6667 69.2722C26.3095 69.8015 25.7738 70 25.3571 70ZM35 66.4934C34.7024 66.4934 34.5238 66.4272 34.2857 66.2949C32.1429 64.9055 29.1071 60.6049 32.5 53.8563C33.5119 51.8053 33.8095 50.1512 33.3929 48.8941C32.9762 47.4386 31.6071 46.8431 31.6071 46.8431C30.8333 46.5123 30.4762 45.6522 30.7738 44.7921C31.0119 44.1304 31.4881 43.7335 32.0833 43.7335C32.2619 43.7335 32.4405 43.7996 32.619 43.8658C33.2143 44.1304 35.2976 45.189 36.131 47.8355C36.8452 50.0851 36.4881 52.6654 35 55.5104C32.1429 61.2004 35.5952 63.5161 35.7738 63.5822C36.0714 63.7807 36.3095 64.1115 36.4286 64.5085C36.5476 64.9055 36.4881 65.3686 36.3095 65.7656C35.9524 66.2949 35.4167 66.4934 35 66.4934ZM15.2381 66.4934C14.9405 66.4934 14.7619 66.4272 14.5238 66.2949C12.381 64.9055 9.34524 60.6049 12.7381 53.8563C13.75 51.8053 14.0476 50.1512 13.631 48.8941C13.2143 47.4386 11.8452 46.8431 11.8452 46.8431C11.0714 46.5123 10.7143 45.6522 11.0119 44.7921C11.25 44.1304 11.7262 43.7335 12.3214 43.7335C12.5 43.7335 12.6786 43.7996 12.8571 43.8658C13.4524 44.1304 15.5357 45.2552 16.369 47.8355C17.0833 50.0851 16.6667 52.6654 15.2381 55.5766C12.381 61.2665 15.8333 63.5822 16.0119 63.6484C16.3095 63.8469 16.5476 64.1777 16.6667 64.5747C16.7857 64.9716 16.7262 65.4348 16.5476 65.8318C16.25 66.2949 15.6548 66.4934 15.2381 66.4934ZM51.4881 60.6049C51.0119 60.6049 50.6548 60.4064 50.3571 60.0756C50.0595 59.7448 49.881 59.2817 49.881 58.8185C49.881 58.0907 50.2976 57.4291 50.8929 57.0983H50.9524V53.5255L47.9167 55.4442V55.5104C47.9167 56.0397 47.7381 56.7013 47.1429 57.0321C46.9048 57.2306 46.6071 57.2968 46.3095 57.2968C45.7143 57.2968 45.1786 56.966 44.9405 56.4367C44.7024 55.9735 44.6429 55.5104 44.7619 55.0473C44.881 54.5841 45.119 54.1871 45.5357 53.9887C45.7738 53.7902 46.0714 53.724 46.3095 53.724C46.6071 53.724 46.9048 53.7902 47.1429 53.9887L49.881 52.2684L47.2024 50.5482C46.8452 50.6805 46.5476 50.7467 46.3095 50.7467C46.0119 50.7467 45.7738 50.6805 45.5357 50.5482C44.8214 50.0189 44.5238 48.8941 44.9405 48.1002C45.2381 47.5709 45.7738 47.2401 46.369 47.2401C46.6667 47.2401 46.9643 47.3062 47.2024 47.5047C47.6786 47.8355 47.9762 48.3648 47.9762 49.0265V49.0926L51.0119 51.0113V47.4386H50.9524C50.3571 47.1077 49.9405 46.4461 49.9405 45.7183C49.9405 44.7259 50.6548 43.9319 51.5476 43.9319C52.0238 43.9319 52.4405 44.1304 52.7381 44.4612C53.0357 44.7921 53.2143 45.2552 53.2143 45.7183C53.2143 46.3138 52.9167 46.9093 52.381 47.2401H52.2024V50.6805L54.8214 49.0265V48.9603C54.8214 48.431 55 47.7694 55.5952 47.4386C55.8333 47.2401 56.131 47.1739 56.4286 47.1739C57.0238 47.1739 57.5595 47.5047 57.7976 48.034C58.0357 48.4972 58.0952 48.9603 57.9762 49.4234C57.8571 49.8866 57.619 50.2836 57.2024 50.482C56.9643 50.6805 56.6667 50.7467 56.4286 50.7467C56.131 50.7467 55.8333 50.6805 55.5952 50.482L52.8571 52.2023L55.5357 53.9225C55.8929 53.7902 56.1905 53.724 56.4286 53.724C56.7262 53.724 56.9643 53.7902 57.2024 53.9225C57.9167 54.4518 58.2143 55.5766 57.7976 56.3705C57.5 56.8998 56.9643 57.2306 56.369 57.2306C56.0714 57.2306 55.7738 57.1645 55.5357 56.966C55.0595 56.6352 54.7619 56.1059 54.7619 55.4442V55.3781L52.2024 53.7902V57.2306H52.2619C52.7976 57.4953 53.0952 58.0907 53.0952 58.7524C53.0952 59.811 52.381 60.6049 51.4881 60.6049ZM8.15476 39.6975C3.63095 39.6975 0 35.6616 0 30.6333V9.06427C0 4.03592 3.63095 0 8.15476 0H61.8452C66.369 0 70 4.03592 70 9.06427V30.6333C70 35.6616 66.369 39.6975 61.8452 39.6975H8.15476ZM7.32143 3.96975C5.17857 3.96975 3.45238 5.95463 3.45238 8.46881V31.4934C3.45238 33.9414 5.17857 35.9924 7.32143 35.9924H62.619C64.7619 35.9924 66.4881 34.0076 66.4881 31.4934V8.46881C66.4881 6.02079 64.7619 3.96975 62.619 3.96975H7.32143ZM8.92857 29.7732C8.15476 29.7732 7.5 29.0454 7.5 28.1853C7.5 27.3251 8.15476 26.5974 8.92857 26.5974H59.7024C60.4762 26.5974 61.131 27.3251 61.131 28.1853C61.131 29.0454 60.4762 29.7732 59.7024 29.7732H8.92857ZM8.92857 23.0907C8.15476 23.0907 7.5 22.3629 7.5 21.5028C7.5 20.6427 8.15476 19.9149 8.92857 19.9149H59.7024C60.4762 19.9149 61.131 20.6427 61.131 21.5028C61.131 22.3629 60.4762 23.0907 59.7024 23.0907H8.92857Z" fill="#32BBFF"/>
</svg>
