<svg width="70" height="70" viewBox="0 0 70 70" fill="none" xmlns="http://www.w3.org/2000/svg">
<path d="M62.0863 3.0085C62.3381 2.75743 62.452 2.39939 62.3907 2.05008C62.3294 1.70076 62.1016 1.40166 61.7776 1.25102C56.7608 -1.10683 50.8069 -0.0719951 46.8917 3.85122C43.1735 7.5823 41.875 13.442 43.6093 18.3411L18.3418 43.5331C16.9689 43.044 15.5017 42.7995 13.9711 42.7995C10.2179 42.7995 6.57853 44.2884 3.98807 46.8865C0.0859467 50.7988 -1.0133 56.5799 1.18301 61.6165C1.32753 61.9484 1.62752 62.1885 1.98445 62.254C2.34357 62.3217 2.70926 62.2082 2.96327 61.9505L10.6077 54.2897C11.1113 53.7832 11.9237 53.7155 12.3441 54.1412L15.6441 57.5841C16.1236 58.0666 16.1017 58.8111 15.5959 59.3198L7.97997 66.961C7.72815 67.2121 7.61647 67.5701 7.67778 67.9194C7.73909 68.2687 7.96683 68.5656 8.28872 68.7163C10.104 69.5699 12.0135 70 13.9623 70C17.4046 70 20.6739 68.6202 23.1746 66.1139C26.8928 62.385 28.1913 56.5253 26.4548 51.6262L51.7223 26.4321C53.0974 26.9211 54.5645 27.1656 56.0952 27.1656C59.8484 27.1656 63.4877 25.6767 66.0782 23.0787C69.9803 19.1664 71.0796 13.3853 68.8833 8.34861C68.7387 8.01676 68.4387 7.77661 68.0818 7.71111C67.7293 7.64998 67.3592 7.75696 67.103 8.01458L59.4586 15.6754C58.9878 16.147 58.1886 16.1426 57.7046 15.6536L54.4222 12.381C53.9273 11.8854 53.9295 11.1409 54.42 10.6475L62.0863 3.0085ZM52.8719 13.9245L56.1543 17.1971C57.466 18.5114 59.7126 18.518 61.0111 17.2168L67.4271 10.7894C68.4541 14.5904 67.3921 18.6686 64.5279 21.5439C62.3447 23.7336 59.2747 24.9868 56.0974 24.9868C54.6018 24.9868 53.185 24.7073 51.8865 24.1572C51.4748 23.9803 50.9996 24.0764 50.6843 24.3886L24.4074 50.587C24.0921 50.9014 24.0001 51.3729 24.1731 51.7812C25.9315 55.9511 24.8607 61.3327 21.6264 64.5769C18.7338 67.4762 14.5229 68.5089 10.7106 67.3234L17.1506 60.8611C18.5104 59.4966 18.5323 57.3811 17.2141 56.0624L13.9164 52.6195C12.6441 51.3424 10.3821 51.421 9.05951 52.7549L2.64357 59.1822C1.61658 55.3813 2.6786 51.3031 5.54278 48.4278C7.72596 46.238 10.796 44.9849 13.9733 44.9849C15.4689 44.9849 16.8856 45.2643 18.1842 45.8145C18.5936 45.9935 19.071 45.8953 19.3863 45.5831L45.6632 19.3847C45.9786 19.0703 46.0705 18.5987 45.8975 18.1905C44.1392 14.0206 45.21 8.63679 48.4442 5.39255C51.3347 2.49327 55.5434 1.46716 59.3535 2.64609L52.8719 9.11055C51.523 10.4576 51.523 12.5709 52.8719 13.9245Z" fill="#32BBFF"/>
<path d="M63.9607 66.9609C63.4767 67.4456 62.6381 67.4456 62.1498 66.9565L40.1866 45.1245C39.7596 44.7032 39.0655 44.701 38.6385 45.1289C38.2115 45.5546 38.2137 46.2467 38.6407 46.6724L60.6016 68.5C61.2585 69.1572 62.13 69.5196 63.0585 69.5196C63.9869 69.5196 64.8585 69.1572 65.5285 68.4848L68.6577 65.2252C70.0044 63.876 70.0044 61.7605 68.6555 60.4091L46.7581 38.5771C46.3311 38.1514 45.6369 38.1514 45.2099 38.5771C44.7829 39.0028 44.7829 39.6949 45.2099 40.1206L67.1051 61.9504C67.6066 62.4526 67.6066 63.1818 67.0898 63.7014L63.9607 66.9609Z" fill="#32BBFF"/>
<path d="M12.8171 6.92065L6.24788 0.371051C5.82088 -0.0546732 5.12673 -0.0546732 4.69973 0.371051L0.32025 4.73745C-0.10675 5.16317 -0.10675 5.85525 0.32025 6.28097L6.88948 12.8306C7.10188 13.0445 7.38217 13.1515 7.66246 13.1515C7.94274 13.1515 8.22303 13.0445 8.43762 12.8328L9.8522 11.4202L26.595 28.113C26.8096 28.3269 27.0898 28.4339 27.3701 28.4339C27.6504 28.4339 27.9307 28.3269 28.1453 28.1152C28.5723 27.6894 28.5723 26.9974 28.1453 26.5716L11.4003 9.8767L12.8149 8.46636C13.2441 8.03845 13.2441 7.34856 12.8171 6.92065ZM7.66246 10.5164L2.64138 5.5103L5.47271 2.68743L10.4938 7.6935L7.66246 10.5164Z" fill="#32BBFF"/>
</svg>
