<svg width="70" height="70" viewBox="0 0 70 70" fill="none" xmlns="http://www.w3.org/2000/svg">
<path d="M52.4983 34.9988C50.5803 34.9988 48.9984 36.5808 48.9984 38.4987V40.3303C48.0814 40.5963 47.2018 40.9533 46.3618 41.4153L45.6315 40.6827C44.2735 39.3247 42.0383 39.3247 40.685 40.6827C39.3247 42.0359 39.3247 44.2759 40.685 45.6291L41.4153 46.3641C40.9486 47.2041 40.5893 48.0814 40.3187 49.0007H38.4987C36.5808 49.0007 34.9988 50.5826 34.9988 52.5006C34.9988 54.4185 36.5808 56.0005 38.4987 56.0005H40.3303C40.5963 56.9174 40.9533 57.7971 41.4153 58.6371L40.6827 59.3674C39.3247 60.7253 39.3247 62.9606 40.6827 64.3139C42.0359 65.6741 44.2759 65.6741 45.6291 64.3139L46.3641 63.5835C47.2041 64.0502 48.0814 64.4095 49.0007 64.6802V66.5001C49.0007 68.4181 50.5826 70 52.5006 70C54.4185 70 56.0005 68.4181 56.0005 66.5001V64.6685C56.9174 64.4025 57.7971 64.0455 58.6371 63.5835L59.3674 64.3162C60.7253 65.6741 62.9606 65.6741 64.3139 64.3162C65.6741 62.9629 65.6741 60.723 64.3139 59.3697L63.5835 58.6347C64.0502 57.7947 64.4095 56.9174 64.6802 55.9981H66.5001C68.4181 55.9981 70 54.4162 70 52.4983C70 50.5803 68.4181 48.9984 66.5001 48.9984H64.6685C64.4025 48.0814 64.0455 47.2018 63.5835 46.3618L64.3162 45.6315C65.6741 44.2735 65.6741 42.0383 64.3162 40.685C62.9629 39.3247 60.723 39.3247 59.3697 40.685L58.6347 41.4153C57.7947 40.9486 56.9174 40.5893 55.9981 40.3187V38.4987C55.9981 36.5808 54.4162 34.9988 52.4983 34.9988ZM52.4983 37.3321C53.1656 37.3321 53.6649 37.8314 53.6649 38.4987V40.832C53.6649 41.5973 53.8609 42.0173 54.5515 42.2039C55.8815 42.4723 57.1461 42.9972 58.2777 43.7439C58.7397 44.0519 59.3557 43.9912 59.7477 43.5992L61.0146 42.3323C61.486 41.8609 62.1929 41.8609 62.6642 42.3323C63.1356 42.8036 63.1356 43.5106 62.6642 43.9819L61.3973 45.2488C61.0053 45.6385 60.9423 46.2521 61.248 46.7141C61.9946 47.8481 62.5173 49.1127 62.7832 50.4403C62.9699 51.145 63.5859 51.334 64.1645 51.334H66.4978C67.1651 51.334 67.6644 51.8333 67.6644 52.5006C67.6644 53.1679 67.1651 53.6672 66.4978 53.6672H64.1645C63.2452 53.6672 62.9326 54.0359 62.7926 54.5539C62.5243 55.8838 61.9993 57.1484 61.2526 58.2801C60.9446 58.7421 61.0053 59.358 61.3973 59.75L62.6642 61.017C63.1356 61.4883 63.1356 62.1953 62.6642 62.6666C62.1929 63.1379 61.486 63.1379 61.0146 62.6666L59.7477 61.3996C59.358 61.0076 58.7444 60.9446 58.2824 61.2503C57.1484 61.9969 55.8838 62.5196 54.5562 62.7856C53.9402 62.9489 53.6625 63.5789 53.6625 64.1669V66.5001C53.6625 67.1674 53.1632 67.6667 52.4959 67.6667C51.8286 67.6667 51.3293 67.1674 51.3293 66.5001V64.1669C51.3293 63.3036 51.0073 62.9466 50.4427 62.7949C49.1127 62.5266 47.8481 62.0016 46.7164 61.255C46.2545 60.947 45.6385 61.0076 45.2465 61.3996L43.9795 62.6666C43.5082 63.1379 42.8012 63.1379 42.3299 62.6666C41.8586 62.1953 41.8586 61.4883 42.3299 61.017L43.5969 59.75C43.9889 59.3604 44.0519 58.7467 43.7462 58.2847C42.9996 57.1508 42.4769 55.8861 42.2109 54.5585C42.0943 53.9705 41.5996 53.6649 40.8296 53.6649H38.4964C37.8291 53.6649 37.3298 53.1656 37.3298 52.4983C37.3298 51.8309 37.8291 51.3316 38.4964 51.3316H40.8296C41.8679 51.3316 42.0523 50.998 42.2016 50.445C42.4699 49.115 42.9949 47.8504 43.7415 46.7188C44.0495 46.2568 43.9889 45.6408 43.5969 45.2488L42.3299 43.9819C41.8586 43.5106 41.8586 42.8036 42.3299 42.3323C42.8012 41.8609 43.5082 41.8609 43.9795 42.3323L45.2465 43.5992C45.6362 43.9912 46.2498 44.0542 46.7118 43.7485C47.8457 43.0019 49.1104 42.4793 50.438 42.2133C51.376 41.9986 51.3316 41.266 51.3316 40.832V38.4987C51.3316 37.8314 51.8309 37.3321 52.4983 37.3321ZM52.4983 46.6651C49.29 46.6651 46.6651 49.29 46.6651 52.4983C46.6651 55.7065 49.29 58.3314 52.4983 58.3314C55.7065 58.3314 58.3314 55.7065 58.3314 52.4983C58.3314 49.29 55.7065 46.6651 52.4983 46.6651ZM52.4983 48.9984C54.4442 48.9984 55.9981 50.5523 55.9981 52.4983C55.9981 54.4442 54.4442 55.9981 52.4983 55.9981C50.5523 55.9981 48.9984 54.4442 48.9984 52.4983C48.9984 50.5523 50.5523 48.9984 52.4983 48.9984ZM29.1657 18.666C23.3792 18.666 18.666 23.3792 18.666 29.1657C18.666 34.9522 23.3792 39.6653 29.1657 39.6653C34.9522 39.6653 39.6653 34.9522 39.6653 29.1657C39.6653 23.3792 34.9522 18.666 29.1657 18.666ZM29.1657 20.9993C33.6922 20.9993 37.3321 24.6392 37.3321 29.1657C37.3321 33.6922 33.6922 37.3321 29.1657 37.3321C24.6392 37.3321 20.9993 33.6922 20.9993 29.1657C20.9993 24.6392 24.6392 20.9993 29.1657 20.9993ZM26.8324 0C24.9145 0 23.3326 1.58195 23.3326 3.49988V7.9564C21.5523 8.44639 19.8467 9.14636 18.2414 10.0563L13.8665 5.68614C12.5086 4.32819 10.2733 4.32819 8.91304 5.68614L5.61381 8.98304C4.26052 10.3363 4.26052 12.5762 5.61381 13.9295L10.0167 18.3324C9.12536 19.912 8.43005 21.5849 7.94707 23.3326H3.49988C1.58195 23.3326 0 24.9145 0 26.8324V31.499C0 33.4169 1.58195 34.9988 3.49988 34.9988H7.95174C8.43472 36.7651 9.1347 38.4521 10.0353 40.048L5.61615 44.4649C4.25819 45.8228 4.25819 48.0581 5.61615 49.4184L8.91537 52.7176C10.2733 54.0755 12.5086 54.0755 13.8689 52.7176L18.2951 48.2844C19.8817 49.1944 21.5709 49.8943 23.3349 50.3797V54.8315C23.3349 56.7494 24.9168 58.3314 26.8348 58.3314H31.5013C33.0506 58.3314 33.0412 55.9981 31.5013 55.9981H26.8348C26.1675 55.9981 25.6681 55.4988 25.6681 54.8315V49.619C25.6681 49.073 25.2948 48.5994 24.7582 48.4757C22.5882 47.9811 20.5117 47.1224 18.6217 45.9325C18.1644 45.6432 17.5671 45.7108 17.1821 46.0911L17.1681 46.1145L17.1611 46.1238L12.2193 51.0703C11.7526 51.537 11.0363 51.537 10.5626 51.0703L7.26576 47.7687C6.79911 47.2974 6.79911 46.5835 7.26576 46.1121L12.2193 41.1656L12.2286 41.1563L12.2333 41.1493C12.6112 40.7643 12.6766 40.1693 12.3896 39.712C11.2043 37.8221 10.3503 35.7455 9.85801 33.5756C9.73668 33.0389 9.26303 32.6656 8.71471 32.6656H3.49988C2.83257 32.6656 2.33326 32.1663 2.33326 31.499V26.8324C2.33326 26.1651 2.83257 25.6658 3.49988 25.6658H8.71238C9.25836 25.6658 9.73201 25.2925 9.85567 24.7558C10.3457 22.6022 11.195 20.542 12.3686 18.666C12.6602 18.2041 12.5902 17.6067 12.2053 17.2194L7.26342 12.2846C6.79211 11.8133 6.79211 11.1063 7.26342 10.635L10.5626 7.33576C11.034 6.86444 11.7479 6.86444 12.2193 7.33576L17.1261 12.2449C17.5111 12.6299 18.1061 12.6976 18.5727 12.4083C20.472 11.2136 22.5626 10.355 24.7488 9.85801C25.2808 9.73668 25.6588 9.26303 25.6588 8.71471V3.49988C25.6588 2.83257 26.1581 2.33326 26.8254 2.33326H31.492C32.1593 2.33326 32.6586 2.83257 32.6586 3.49988V8.71238C32.6586 9.25836 33.0319 9.73201 33.5686 9.85567C35.7385 10.3503 37.8081 11.209 39.6957 12.3966C40.1553 12.6836 40.755 12.6159 41.1423 12.2333L46.0421 7.33342C46.5135 6.86211 47.2204 6.86211 47.6917 7.33342L50.991 10.6326C51.4623 11.104 51.4623 11.8109 50.991 12.2823L46.1145 17.1728C45.7295 17.5554 45.6618 18.1527 45.9511 18.6194C47.1318 20.5093 47.9811 22.5789 48.4711 24.7558C48.5947 25.2878 49.0684 25.6658 49.6143 25.6658H54.8315C55.4988 25.6658 55.9981 26.1651 55.9981 26.8324V31.499C55.9981 33.0576 58.3314 33.0202 58.3314 31.499V26.8324C58.3314 24.9145 56.7494 23.3326 54.8315 23.3326H50.3797C49.8967 21.5686 49.2014 19.8793 48.3031 18.2834L52.6476 13.9319C54.0055 12.5786 54.0055 10.3387 52.6476 8.98537L49.3484 5.68381C47.9951 4.32586 45.7551 4.32586 44.4019 5.68381L40.0387 10.047C38.4521 9.13703 36.7604 8.43705 34.9988 7.95174V3.49988C34.9988 1.58195 33.4169 0 31.499 0H26.8324Z" fill="#32BBFF"/>
</svg>
