<svg width="70" height="70" viewBox="0 0 70 70" fill="none" xmlns="http://www.w3.org/2000/svg">
<path fill-rule="evenodd" clip-rule="evenodd" d="M46.6667 68.6538C46.6667 69.3969 46.144 70 45.5 70H43.1667C42.5227 70 42 69.3969 42 68.6538C42 67.9108 42.5227 67.3077 43.1667 67.3077H45.5C46.144 67.3077 46.6667 67.9108 46.6667 68.6538ZM70 68.6538C70 69.3969 69.4773 70 68.8333 70H50.1667C49.5227 70 49 69.3969 49 68.6538C49 67.9108 49.5227 67.3077 50.1667 67.3077H68.8333C69.4773 67.3077 70 67.9108 70 68.6538ZM37.3333 68.6538C37.3333 69.3969 36.8107 70 36.1667 70H24.5C23.856 70 23.3333 69.3969 23.3333 68.6538C23.3333 67.9108 23.856 67.3077 24.5 67.3077H36.1667C36.8107 67.3077 37.3333 67.9108 37.3333 68.6538ZM18.6667 68.6538C18.6667 69.3969 18.144 70 17.5 70H1.16667C0.522667 70 0 69.3969 0 68.6538C0 67.9108 0.522667 67.3077 1.16667 67.3077H17.5C18.144 67.3077 18.6667 67.9108 18.6667 68.6538ZM2.33333 41.7308C2.33333 40.9877 2.856 40.3846 3.5 40.3846H6.81333L6.31983 36.544C6.22533 35.809 6.66517 35.1238 7.30217 35.0148C7.94383 34.9112 8.53417 35.4133 8.62867 36.1483L9.1735 40.3846H17.5C18.144 40.3846 18.6667 40.9877 18.6667 41.7308C18.6667 42.4738 18.144 43.0769 17.5 43.0769H3.5C2.856 43.0769 2.33333 42.4738 2.33333 41.7308ZM3.5 29.6154H5.31883L4.82533 25.7748C4.73083 25.0398 5.17067 24.3546 5.80767 24.2456C6.44933 24.1433 7.03967 24.644 7.133 25.379L7.679 29.6154H17.5C18.144 29.6154 18.6667 30.2185 18.6667 30.9615C18.6667 31.7046 18.144 32.3077 17.5 32.3077H3.5C2.856 32.3077 2.33333 31.7046 2.33333 30.9615C2.33333 30.2185 2.856 29.6154 3.5 29.6154ZM17.5 56.5385C16.8572 56.5385 16.3333 55.934 16.3333 55.1923C16.3333 54.4506 16.8572 53.8462 17.5 53.8462C18.1428 53.8462 18.6667 54.4506 18.6667 55.1923C18.6667 55.934 18.1428 56.5385 17.5 56.5385ZM17.5 51.1538C15.5703 51.1538 14 52.9658 14 55.1923C14 57.4188 15.5703 59.2308 17.5 59.2308C19.4297 59.2308 21 57.4188 21 55.1923C21 52.9658 19.4297 51.1538 17.5 51.1538ZM57.1667 56.5385C56.5238 56.5385 56 55.934 56 55.1923C56 54.4506 56.5238 53.8462 57.1667 53.8462C57.8095 53.8462 58.3333 54.4506 58.3333 55.1923C58.3333 55.934 57.8095 56.5385 57.1667 56.5385ZM57.1667 51.1538C55.237 51.1538 53.6667 52.9658 53.6667 55.1923C53.6667 57.4188 55.237 59.2308 57.1667 59.2308C59.0963 59.2308 60.6667 57.4188 60.6667 55.1923C60.6667 52.9658 59.0963 51.1538 57.1667 51.1538ZM57.1667 61.9231C53.9502 61.9231 51.3333 58.9037 51.3333 55.1923C51.3333 51.481 53.9502 48.4615 57.1667 48.4615C60.3832 48.4615 63 51.481 63 55.1923C63 58.9037 60.3832 61.9231 57.1667 61.9231ZM68.4915 34.0483L65.2937 30.3585L64.1667 14.8077C64.1667 11.0963 61.5498 8.07692 58.3333 8.07692H50.1667C49.5227 8.07692 49 8.68 49 9.42308C49 10.1662 49.5227 10.7692 50.1667 10.7692H58.3333C60.2303 10.7692 61.8333 12.6188 61.8368 14.9194L62.8985 29.6154H59.0543L60.5442 26.1787C60.8323 25.5137 60.5978 24.706 60.0215 24.3721C59.444 24.0396 58.7452 24.3102 58.4558 24.9752L56.4457 29.6154H50.1667C49.5227 29.6154 49 30.2185 49 30.9615C49 31.7046 49.5227 32.3077 50.1667 32.3077H63.6837L66.8418 35.9517C67.5068 36.719 67.6643 38.4838 67.6667 39.0385V53.8462H65.24C64.6718 49.2867 61.2733 45.7692 57.1667 45.7692C52.6633 45.7692 49 49.9962 49 55.1923C49 60.3885 52.6633 64.6154 57.1667 64.6154C61.2733 64.6154 64.6718 61.0979 65.24 56.5385H68.8333C69.4773 56.5385 70 55.9354 70 55.1923V39.0385C70 38.706 69.958 35.739 68.4915 34.0483ZM17.5 61.9231C14.2835 61.9231 11.6667 58.9037 11.6667 55.1923C11.6667 51.481 14.2835 48.4615 17.5 48.4615C20.7165 48.4615 23.3333 51.481 23.3333 55.1923C23.3333 58.9037 20.7165 61.9231 17.5 61.9231ZM45.5 0H8.16667C4.95017 0 2.33333 3.01942 2.33333 6.73077C2.33333 6.79808 2.338 6.86404 2.34617 6.93L3.8955 18.8462H1.16667C0.522667 18.8462 0 19.4492 0 20.1923C0 20.9354 0.522667 21.5385 1.16667 21.5385H17.5C18.144 21.5385 18.6667 20.9354 18.6667 20.1923C18.6667 19.4492 18.144 18.8462 17.5 18.8462H6.2545L4.66783 6.63788C4.711 4.45442 6.26383 2.69231 8.16667 2.69231H44.3333V53.8462H25.5733C25.0052 49.2867 21.6067 45.7692 17.5 45.7692C12.9967 45.7692 9.33333 49.9962 9.33333 55.1923C9.33333 60.3885 12.9967 64.6154 17.5 64.6154C21.6067 64.6154 25.0052 61.0979 25.5733 56.5385H45.5C46.144 56.5385 46.6667 55.9354 46.6667 55.1923V1.34615C46.6667 0.603077 46.144 0 45.5 0Z" fill="#32BBFF"/>
</svg>
